<svg xmlns="http://www.w3.org/2000/svg" xmlns:xlink="http://www.w3.org/1999/xlink" viewBox="0 0 44 44"><defs><style>.cls-1{fill:none;}.cls-2{clip-path:url(#clip-path);}.cls-3{fill:#00a984;}.cls-4{fill:#fff;}</style><clipPath id="clip-path"><rect class="cls-1" x="4" y="4" width="36" height="36"/></clipPath></defs><g id="Layer_1" data-name="Layer 1"><g class="cls-2"><path class="cls-3" d="M22,40A18,18,0,1,0,4,22,18,18,0,0,0,22,40"/><path class="cls-4" d="M34.17,28.69a1.17,1.17,0,0,0-.93-.27L22,29.85,10.76,28.42a1.17,1.17,0,0,0-.32,2.32l9.38,1.2a2.77,2.77,0,0,0,4.36,0l9.39-1.2a1.18,1.18,0,0,0,.6-2"/><path class="cls-4" d="M10.61,24.36h2a.41.41,0,0,0,.38-.29l.7-2.46h1l.71,2.46a.38.38,0,0,0,.37.29h2A.38.38,0,0,0,18,24.2a.37.37,0,0,0,.06-.35L15.7,16a.41.41,0,0,0-.38-.28H13a.4.4,0,0,0-.37.28l-2.36,7.86a.4.4,0,0,0,.06.35.39.39,0,0,0,.32.16m3.53-5.44.24.72H13.9Z"/><path class="cls-4" d="M18.46,19.64h4.72a2.75,2.75,0,0,0,2.75-2.75,2.72,2.72,0,0,0-1.79-2.56A2.34,2.34,0,0,0,22,11H18.46a.39.39,0,0,0-.39.39v7.86a.39.39,0,0,0,.39.39m2-6.28h1.18a.39.39,0,0,1,0,.78H20.43Zm0,3.14h2.75a.4.4,0,0,1,0,.79H20.43Z"/><path class="cls-4" d="M30.25,24.36a3.55,3.55,0,0,0,3.54-3.54.39.39,0,0,0-.4-.39H31.82a.39.39,0,0,0-.39.39,1.18,1.18,0,0,1-2.36,0V19.25a1.18,1.18,0,0,1,2.36,0,.39.39,0,0,0,.39.39h1.57a.39.39,0,0,0,.4-.39,3.54,3.54,0,0,0-7.08,0v1.57a3.55,3.55,0,0,0,3.54,3.54"/><path class="cls-4" d="M10.61,27.5h1a18.3,18.3,0,0,1,6,1l2.79.36a18.92,18.92,0,0,0-8.77-2.15h-1a.4.4,0,0,0-.4.4.39.39,0,0,0,.4.39"/><path class="cls-4" d="M13,25.14a.39.39,0,0,0-.39.4.38.38,0,0,0,.39.39h1.21a8.48,8.48,0,0,1,6.4,2.95l1.11.15a9.26,9.26,0,0,0-7.51-3.89Z"/><path class="cls-4" d="M31,25.93a.38.38,0,0,0,.39-.39.39.39,0,0,0-.39-.4H29.83A9.26,9.26,0,0,0,22.32,29l1.11-.15a8.48,8.48,0,0,1,6.4-2.95Z"/><path class="cls-4" d="M32.38,27.5h1a.39.39,0,0,0,.4-.39.4.4,0,0,0-.4-.4h-1a18.92,18.92,0,0,0-8.77,2.15l2.8-.36a18.25,18.25,0,0,1,6-1"/></g></g></svg>