<svg xmlns="http://www.w3.org/2000/svg" xmlns:xlink="http://www.w3.org/1999/xlink" viewBox="0 0 1920 1080"><defs><style>.cls-1,.cls-75{fill:none;}.cls-2{fill:#feebbd;opacity:0.8;}.cls-3{clip-path:url(#clip-path);}.cls-4{clip-path:url(#clip-path-2);}.cls-5{opacity:0.3;}.cls-6{clip-path:url(#clip-path-3);}.cls-7{fill:#00a984;}.cls-8{clip-path:url(#clip-path-4);}.cls-9{fill:#ed6b62;}.cls-10{clip-path:url(#clip-path-5);}.cls-11{clip-path:url(#clip-path-6);}.cls-12{fill:#fbbb21;}.cls-13{clip-path:url(#clip-path-7);}.cls-14{clip-path:url(#clip-path-8);}.cls-15{clip-path:url(#clip-path-9);}.cls-16{clip-path:url(#clip-path-10);}.cls-17{clip-path:url(#clip-path-11);}.cls-18{clip-path:url(#clip-path-12);}.cls-19{clip-path:url(#clip-path-13);}.cls-20{clip-path:url(#clip-path-14);}.cls-21{clip-path:url(#clip-path-15);}.cls-22{clip-path:url(#clip-path-16);}.cls-23{clip-path:url(#clip-path-17);}.cls-24{clip-path:url(#clip-path-18);}.cls-25{clip-path:url(#clip-path-19);}.cls-26{clip-path:url(#clip-path-20);}.cls-27{clip-path:url(#clip-path-21);}.cls-28{clip-path:url(#clip-path-22);}.cls-29{clip-path:url(#clip-path-23);}.cls-30{clip-path:url(#clip-path-24);}.cls-31{clip-path:url(#clip-path-25);}.cls-32{clip-path:url(#clip-path-26);}.cls-33{clip-path:url(#clip-path-27);}.cls-34{clip-path:url(#clip-path-28);}.cls-35{clip-path:url(#clip-path-29);}.cls-36{clip-path:url(#clip-path-30);}.cls-37{clip-path:url(#clip-path-31);}.cls-38{clip-path:url(#clip-path-32);}.cls-39{clip-path:url(#clip-path-33);}.cls-40{clip-path:url(#clip-path-34);}.cls-41{clip-path:url(#clip-path-35);}.cls-42{clip-path:url(#clip-path-36);}.cls-43{clip-path:url(#clip-path-37);}.cls-44{clip-path:url(#clip-path-38);}.cls-45{clip-path:url(#clip-path-39);}.cls-46{clip-path:url(#clip-path-40);}.cls-47{clip-path:url(#clip-path-41);}.cls-48{clip-path:url(#clip-path-42);}.cls-49{clip-path:url(#clip-path-43);}.cls-50{clip-path:url(#clip-path-44);}.cls-51{clip-path:url(#clip-path-45);}.cls-52{clip-path:url(#clip-path-46);}.cls-53{clip-path:url(#clip-path-47);}.cls-54{clip-path:url(#clip-path-48);}.cls-55{clip-path:url(#clip-path-49);}.cls-56{clip-path:url(#clip-path-50);}.cls-57{clip-path:url(#clip-path-51);}.cls-58{clip-path:url(#clip-path-52);}.cls-59{clip-path:url(#clip-path-53);}.cls-60{clip-path:url(#clip-path-54);}.cls-61{clip-path:url(#clip-path-55);}.cls-62{clip-path:url(#clip-path-56);}.cls-63{clip-path:url(#clip-path-57);}.cls-64{clip-path:url(#clip-path-58);}.cls-65{clip-path:url(#clip-path-59);}.cls-66{clip-path:url(#clip-path-60);}.cls-67{clip-path:url(#clip-path-61);}.cls-68{clip-path:url(#clip-path-62);}.cls-69{clip-path:url(#clip-path-63);}.cls-70{clip-path:url(#clip-path-64);}.cls-71{clip-path:url(#clip-path-65);}.cls-72{clip-path:url(#clip-path-66);}.cls-73{clip-path:url(#clip-path-67);}.cls-74{clip-path:url(#clip-path-68);}.cls-75{stroke:#00a984;stroke-width:1.5px;}</style><clipPath id="clip-path"><rect class="cls-1" x="-23.41" y="-108.58" width="1966.94" height="1416.58"/></clipPath><clipPath id="clip-path-2"><rect class="cls-1" x="-23.41" y="-108.58" width="1966.94" height="1416.58"/></clipPath><clipPath id="clip-path-3"><rect class="cls-1" x="-38.67" y="421.1" width="389" height="175.99"/></clipPath><clipPath id="clip-path-4"><rect class="cls-1" x="327.54" y="592.78" width="192.8" height="717.07"/></clipPath><clipPath id="clip-path-5"><polygon class="cls-1" points="503.69 1308 503.69 773.13 503.69 715.87 503.69 605.72 344.18 605.72 344.18 715.87 344.18 773.13 344.18 1308 503.69 1308"/></clipPath><clipPath id="clip-path-6"><rect class="cls-1" x="1687.52" y="592.78" width="192.8" height="347.67"/></clipPath><clipPath id="clip-path-7"><rect class="cls-1" x="667.53" y="421.1" width="362.8" height="175.99"/></clipPath><clipPath id="clip-path-8"><polygon class="cls-1" points="1013.69 595.24 1013.69 434.04 935.86 434.04 854.17 434.04 684.17 434.04 684.17 595.24 854.17 595.24 935.86 595.24 1013.69 595.24"/></clipPath><clipPath id="clip-path-9"><rect class="cls-1" x="1517.53" y="249.42" width="442.64" height="175.99"/></clipPath><clipPath id="clip-path-10"><polygon class="cls-1" points="1943.53 423.56 1943.53 262.36 1891.13 262.36 1812.8 262.36 1534.17 262.36 1534.17 423.56 1812.8 423.56 1891.13 423.56 1943.53 423.56"/></clipPath><clipPath id="clip-path-11"><rect class="cls-1" x="1177.53" y="421.1" width="192.8" height="519.34"/></clipPath><clipPath id="clip-path-12"><polygon class="cls-1" points="1353.68 938.59 1353.68 595.24 1353.68 562.4 1353.68 434.04 1194.17 434.04 1194.17 562.4 1194.17 595.24 1194.17 938.59 1353.68 938.59"/></clipPath><clipPath id="clip-path-13"><rect class="cls-1" x="497.54" y="77.74" width="702.79" height="175.99"/></clipPath><clipPath id="clip-path-14"><rect class="cls-1" x="-38.67" y="-120.14" width="219.01" height="373.87"/></clipPath><clipPath id="clip-path-15"><polygon class="cls-1" points="163.7 251.88 163.7 183.99 163.7 78 163.7 -107.2 -22.03 -107.2 -22.03 78 -22.03 183.99 -22.03 251.88 163.7 251.88"/></clipPath><clipPath id="clip-path-16"><rect class="cls-1" x="-38.67" y="249.42" width="219.01" height="175.99"/></clipPath><clipPath id="clip-path-17"><rect class="cls-1" x="-12.46" y="592.78" width="192.8" height="175.99"/></clipPath><clipPath id="clip-path-18"><rect class="cls-1" x="-38.67" y="936.13" width="219.01" height="175.99"/></clipPath><clipPath id="clip-path-19"><rect class="cls-1" x="667.53" y="249.42" width="192.8" height="175.99"/></clipPath><clipPath id="clip-path-20"><rect class="cls-1" x="684.18" y="262.36" width="159.52" height="161.2"/></clipPath><clipPath id="clip-path-21"><rect class="cls-1" x="667.53" y="764.45" width="192.8" height="175.99"/></clipPath><clipPath id="clip-path-22"><rect class="cls-1" x="1347.53" y="249.42" width="192.8" height="175.99"/></clipPath><clipPath id="clip-path-23"><rect class="cls-1" x="1347.53" y="592.78" width="192.8" height="175.99"/></clipPath><clipPath id="clip-path-24"><rect class="cls-1" x="1347.53" y="764.45" width="192.8" height="175.99"/></clipPath><clipPath id="clip-path-25"><rect class="cls-1" x="327.54" y="-93.93" width="192.8" height="175.99"/></clipPath><clipPath id="clip-path-26"><rect class="cls-1" x="327.54" y="249.42" width="192.8" height="175.99"/></clipPath><clipPath id="clip-path-27"><rect class="cls-1" x="344.18" y="262.36" width="159.52" height="161.2"/></clipPath><clipPath id="clip-path-28"><rect class="cls-1" x="327.54" y="77.74" width="192.8" height="175.99"/></clipPath><clipPath id="clip-path-29"><rect class="cls-1" x="344.18" y="90.69" width="159.52" height="161.2"/></clipPath><clipPath id="clip-path-30"><rect class="cls-1" x="1007.53" y="-93.93" width="192.8" height="175.99"/></clipPath><clipPath id="clip-path-31"><rect class="cls-1" x="1007.53" y="592.78" width="192.8" height="175.99"/></clipPath><clipPath id="clip-path-32"><rect class="cls-1" x="1024.17" y="605.72" width="159.52" height="161.2"/></clipPath><clipPath id="clip-path-33"><rect class="cls-1" x="1007.53" y="764.45" width="192.8" height="175.99"/></clipPath><clipPath id="clip-path-34"><rect class="cls-1" x="1024.17" y="777.4" width="159.52" height="161.2"/></clipPath><clipPath id="clip-path-35"><rect class="cls-1" x="1007.53" y="936.13" width="192.8" height="175.99"/></clipPath><clipPath id="clip-path-36"><rect class="cls-1" x="1024.17" y="949.07" width="159.52" height="161.2"/></clipPath><clipPath id="clip-path-37"><rect class="cls-1" x="1687.52" y="77.74" width="192.8" height="175.99"/></clipPath><clipPath id="clip-path-38"><rect class="cls-1" x="1687.52" y="421.1" width="272.64" height="175.99"/></clipPath><clipPath id="clip-path-39"><rect class="cls-1" x="157.54" y="249.42" width="192.8" height="175.99"/></clipPath><clipPath id="clip-path-40"><rect class="cls-1" x="157.54" y="592.78" width="192.8" height="175.99"/></clipPath><clipPath id="clip-path-41"><rect class="cls-1" x="174.18" y="605.72" width="159.52" height="161.2"/></clipPath><clipPath id="clip-path-42"><rect class="cls-1" x="157.54" y="764.45" width="192.8" height="175.99"/></clipPath><clipPath id="clip-path-43"><rect class="cls-1" x="174.18" y="777.4" width="159.52" height="161.2"/></clipPath><clipPath id="clip-path-44"><rect class="cls-1" x="157.54" y="936.13" width="192.8" height="175.99"/></clipPath><clipPath id="clip-path-45"><rect class="cls-1" x="837.53" y="-120.14" width="192.8" height="202.19"/></clipPath><clipPath id="clip-path-46"><rect class="cls-1" x="837.53" y="249.42" width="192.8" height="175.99"/></clipPath><clipPath id="clip-path-47"><rect class="cls-1" x="837.53" y="592.78" width="192.8" height="175.99"/></clipPath><clipPath id="clip-path-48"><rect class="cls-1" x="667.53" y="936.13" width="362.8" height="175.99"/></clipPath><clipPath id="clip-path-49"><polygon class="cls-1" points="1013.69 1110.27 1013.69 949.07 963.37 949.07 854.17 949.07 684.17 949.07 684.17 1110.27 854.17 1110.27 963.37 1110.27 1013.69 1110.27"/></clipPath><clipPath id="clip-path-50"><rect class="cls-1" x="1517.52" y="-120.14" width="192.8" height="202.19"/></clipPath><clipPath id="clip-path-51"><rect class="cls-1" x="1534.17" y="-107.2" width="159.52" height="187.4"/></clipPath><clipPath id="clip-path-52"><rect class="cls-1" x="1517.52" y="77.74" width="192.8" height="175.99"/></clipPath><clipPath id="clip-path-53"><rect class="cls-1" x="1534.17" y="90.69" width="159.52" height="161.2"/></clipPath><clipPath id="clip-path-54"><rect class="cls-1" x="1517.52" y="421.1" width="192.8" height="175.99"/></clipPath><clipPath id="clip-path-55"><rect class="cls-1" x="1534.17" y="434.04" width="159.52" height="161.2"/></clipPath><clipPath id="clip-path-56"><rect class="cls-1" x="1517.52" y="764.45" width="192.8" height="175.99"/></clipPath><clipPath id="clip-path-57"><rect class="cls-1" x="1517.52" y="936.13" width="192.8" height="175.99"/></clipPath><clipPath id="clip-path-58"><rect class="cls-1" x="1687.52" y="936.13" width="272.64" height="175.99"/></clipPath><clipPath id="clip-path-59"><rect class="cls-1" x="497.54" y="249.42" width="192.8" height="175.99"/></clipPath><clipPath id="clip-path-60"><rect class="cls-1" x="514.18" y="262.36" width="159.52" height="161.2"/></clipPath><clipPath id="clip-path-61"><rect class="cls-1" x="497.54" y="592.78" width="192.8" height="175.99"/></clipPath><clipPath id="clip-path-62"><rect class="cls-1" x="497.54" y="764.45" width="192.8" height="175.99"/></clipPath><clipPath id="clip-path-63"><rect class="cls-1" x="497.54" y="1107.81" width="192.8" height="202.04"/></clipPath><clipPath id="clip-path-64"><rect class="cls-1" x="514.18" y="1120.75" width="159.52" height="187.25"/></clipPath><clipPath id="clip-path-65"><rect class="cls-1" x="1177.53" y="-120.14" width="192.8" height="202.19"/></clipPath><clipPath id="clip-path-66"><rect class="cls-1" x="1177.53" y="249.42" width="192.8" height="175.99"/></clipPath><clipPath id="clip-path-67"><rect class="cls-1" x="1177.53" y="936.13" width="192.8" height="175.99"/></clipPath><clipPath id="clip-path-68"><rect class="cls-1" x="-40.05" y="-121.52" width="2000.22" height="1326.03"/></clipPath></defs><g id="Layer_2" data-name="Layer 2"><rect class="cls-2" x="-56.5" y="-116" width="2028" height="1431"/></g><g id="Layer_1" data-name="Layer 1"><g class="cls-3"><g class="cls-4"><g class="cls-5"><g class="cls-6"><polygon class="cls-7" points="333.7 595.24 333.7 434.04 255.23 434.04 161.49 434.04 -22.03 434.04 -22.03 595.24 161.49 595.24 255.23 595.24 333.7 595.24"/></g></g><g class="cls-5"><g class="cls-8"><polygon class="cls-9" points="503.69 1308 503.69 773.13 503.69 715.87 503.69 605.72 344.18 605.72 344.18 715.87 344.18 773.13 344.18 1308 503.69 1308"/><g class="cls-10"><path class="cls-7" d="M-22,171.29l446,1.73v89.35s0,80.59,80.2,80.59H766l-2,343.93h-510V858h90.94s79.06,0,79.06,80.6c0,78.62-.44,262.67-.44,262.67h91.73s78.71.08,78.71-80.52v-91.07h510V768.13s0-81.81,79.76-81.81h88.93V514.64h262.07s79.23,0,79.23-80.6V78.88s0-81,79.76-81h276V-107.19H-22Z"/></g></g></g><g class="cls-5"><g class="cls-11"><polygon class="cls-12" points="1863.68 938.59 1863.68 877.99 1863.68 832.25 1863.68 605.72 1704.16 605.72 1704.16 832.25 1704.16 877.99 1704.16 938.59 1863.68 938.59"/></g></g><g class="cls-5"><g class="cls-13"><polygon class="cls-9" points="1013.69 595.24 1013.69 434.04 935.85 434.04 854.17 434.04 684.17 434.04 684.17 595.24 854.17 595.24 935.85 595.24 1013.69 595.24"/><g class="cls-14"><path class="cls-7" d="M-22,171.29l446,1.73v89.35s0,80.59,80.2,80.59H766l-2,343.93h-510V858h90.94s79.06,0,79.06,80.6c0,78.62-.44,262.67-.44,262.67h91.73s78.71.08,78.71-80.52v-91.07h510V768.13s0-81.81,79.76-81.81h88.93V514.64h262.07s79.23,0,79.23-80.6V78.88s0-81,79.76-81h276V-107.19H-22Z"/></g></g></g><g class="cls-5"><g class="cls-15"><polygon class="cls-7" points="1943.53 423.56 1943.53 262.36 1891.13 262.36 1812.8 262.36 1534.17 262.36 1534.17 423.56 1812.8 423.56 1891.13 423.56 1943.53 423.56"/><g class="cls-16"><path class="cls-9" d="M-22,171.28l446,1.73v89.35s0,80.6,80.2,80.6H766l-2,343.92h-510V858h90.94s79.06,0,79.06,80.6c0,78.62-.44,262.68-.44,262.68h91.73s78.71.08,78.71-80.53v-91.07h510V768.12s0-81.81,79.76-81.81h88.93V514.64h262.07s79.23,0,79.23-80.6V78.87s0-81,79.76-81h276V-107.2H-22Z"/></g></g></g><g class="cls-5"><g class="cls-17"><polygon class="cls-12" points="1353.69 938.59 1353.69 595.24 1353.69 562.4 1353.69 434.04 1194.17 434.04 1194.17 562.4 1194.17 595.24 1194.17 938.59 1353.69 938.59"/><g class="cls-18"><path class="cls-7" d="M-22,171.28l446,1.73v89.35s0,80.6,80.2,80.6H766l-2,343.92h-510V858h90.94s79.06,0,79.06,80.6c0,78.62-.44,262.68-.44,262.68h91.73s78.71.08,78.71-80.53v-91.07h510V768.12s0-81.81,79.76-81.81h88.93V514.64h262.07s79.23,0,79.23-80.6V78.87s0-81,79.76-81h276V-107.2H-22Z"/></g></g></g><g class="cls-5"><g class="cls-19"><polygon class="cls-12" points="1183.69 251.88 1183.69 90.69 1069.51 90.69 1024.17 90.69 514.18 90.69 514.18 251.88 1024.17 251.88 1069.51 251.88 1183.69 251.88"/></g></g><g class="cls-5"><g class="cls-20"><polygon class="cls-7" points="163.7 251.88 163.7 183.99 163.7 78 163.7 -107.2 -22.03 -107.2 -22.03 78 -22.03 183.99 -22.03 251.88 163.7 251.88"/><g class="cls-21"><path class="cls-12" d="M-22,171.29l446,1.73v89.35s0,80.59,80.2,80.59H766l-2,343.93h-510V858h90.94s79.06,0,79.06,80.6c0,78.62-.44,262.67-.44,262.67h91.73s78.71.08,78.71-80.52v-91.07h510V768.13s0-81.81,79.76-81.81h88.93V514.64h262.07s79.23,0,79.23-80.6V78.88s0-81,79.76-81h276V-107.19H-22Z"/></g></g></g><g class="cls-5"><g class="cls-22"><rect class="cls-9" x="-22.03" y="262.36" width="185.72" height="161.2"/></g></g><g class="cls-5"><g class="cls-23"><path class="cls-12" d="M83.94,766.91c44.05,0,79.76-36.08,79.76-80.59s-35.71-80.6-79.76-80.6S4.18,641.8,4.18,686.32s35.71,80.59,79.76,80.59"/></g></g><g class="cls-5"><g class="cls-24"><rect class="cls-12" x="-22.03" y="949.07" width="185.72" height="161.2"/></g></g><g class="cls-5"><g class="cls-25"><rect class="cls-7" x="684.18" y="262.36" width="159.52" height="161.2"/><g class="cls-26"><path class="cls-9" d="M-22,171.28l446,1.73v89.35s0,80.6,80.2,80.6H766l-2,343.92h-510V858h90.94s79.06,0,79.06,80.6c0,78.62-.44,262.68-.44,262.68h91.73s78.71.08,78.71-80.53v-91.07h510V768.12s0-81.81,79.76-81.81h88.93V514.64h262.07s79.23,0,79.23-80.6V78.87s0-81,79.76-81h276V-107.2H-22Z"/></g></g></g><g class="cls-5"><g class="cls-27"><rect class="cls-9" x="684.18" y="777.4" width="159.52" height="161.2"/></g></g><g class="cls-5"><g class="cls-28"><path class="cls-9" d="M1443.93,423.56c44,0,79.75-36.09,79.75-80.6s-35.7-80.6-79.75-80.6-79.76,36.09-79.76,80.6,35.71,80.6,79.76,80.6"/></g></g><g class="cls-5"><g class="cls-29"><path class="cls-12" d="M1443.93,766.91c44,0,79.75-36.08,79.75-80.59s-35.7-80.6-79.75-80.6-79.76,36.08-79.76,80.6,35.71,80.59,79.76,80.59"/></g></g><g class="cls-5"><g class="cls-30"><rect class="cls-9" x="1364.17" y="777.4" width="159.52" height="161.2"/></g></g><g class="cls-5"><g class="cls-31"><path class="cls-7" d="M423.94,80.2c44,0,79.75-36.08,79.75-80.59S468-81,423.94-81,344.18-44.91,344.18-.39,379.89,80.2,423.94,80.2"/></g></g><g class="cls-5"><g class="cls-32"><rect class="cls-7" x="344.18" y="262.36" width="159.52" height="161.2"/><g class="cls-33"><path class="cls-9" d="M-22,171.28l446,1.73v89.35s0,80.6,80.2,80.6H766l-2,343.92h-510V858h90.94s79.06,0,79.06,80.6c0,78.62-.44,262.68-.44,262.68h91.73s78.71.08,78.71-80.53v-91.07h510V768.12s0-81.81,79.76-81.81h88.93V514.64h262.07s79.23,0,79.23-80.6V78.87s0-81,79.76-81h276V-107.2H-22Z"/></g></g></g><g class="cls-5"><g class="cls-34"><rect class="cls-12" x="344.18" y="90.69" width="159.52" height="161.2"/><g class="cls-35"><path class="cls-7" d="M-22,171.29l446,1.73v89.35s0,80.59,80.2,80.59H766l-2,343.93h-510V858h90.94s79.06,0,79.06,80.6c0,78.62-.44,262.67-.44,262.67h91.73s78.71.08,78.71-80.52v-91.07h510V768.13s0-81.81,79.76-81.81h88.93V514.64h262.07s79.23,0,79.23-80.6V78.88s0-81,79.76-81h276V-107.19H-22Z"/></g></g></g><g class="cls-5"><g class="cls-36"><path class="cls-9" d="M1103.93,80.2c44,0,79.76-36.08,79.76-80.59S1148-81,1103.93-81s-79.76,36.08-79.76,80.6,35.71,80.59,79.76,80.59"/></g></g><g class="cls-5"><g class="cls-37"><rect class="cls-7" x="1024.17" y="605.72" width="159.52" height="161.2"/><g class="cls-38"><path class="cls-9" d="M-22,171.29l446,1.73v89.35s0,80.59,80.2,80.59H766l-2,343.93h-510V858h90.94s79.06,0,79.06,80.6c0,78.62-.44,262.67-.44,262.67h91.73s78.71.08,78.71-80.52v-91.07h510V768.13s0-81.81,79.76-81.81h88.93V514.64h262.07s79.23,0,79.23-80.6V78.88s0-81,79.76-81h276V-107.19H-22Z"/></g></g></g><g class="cls-5"><g class="cls-39"><rect class="cls-9" x="1024.17" y="777.4" width="159.52" height="161.2"/><g class="cls-40"><path class="cls-12" d="M-22,171.28l446,1.73v89.35s0,80.6,80.2,80.6H766l-2,343.92h-510V858h90.94s79.06,0,79.06,80.6c0,78.62-.44,262.68-.44,262.68h91.73s78.71.08,78.71-80.53v-91.07h510V768.12s0-81.81,79.76-81.81h88.93V514.64h262.07s79.23,0,79.23-80.6V78.87s0-81,79.76-81h276V-107.2H-22Z"/></g></g></g><g class="cls-5"><g class="cls-41"><rect class="cls-9" x="1024.17" y="949.07" width="159.52" height="161.2"/><g class="cls-42"><path class="cls-7" d="M-22,171.29l446,1.73v89.35s0,80.59,80.2,80.59H766l-2,343.93h-510V858h90.94s79.06,0,79.06,80.6c0,78.62-.44,262.67-.44,262.67h91.73s78.71.08,78.71-80.52v-91.07h510V768.13s0-81.81,79.76-81.81h88.93V514.64h262.07s79.23,0,79.23-80.6V78.88s0-81,79.76-81h276V-107.19H-22Z"/></g></g></g><g class="cls-5"><g class="cls-43"><path class="cls-12" d="M1783.92,251.88c44,0,79.76-36.08,79.76-80.6S1828,90.69,1783.92,90.69s-79.76,36.08-79.76,80.59,35.71,80.6,79.76,80.6"/></g></g><g class="cls-5"><g class="cls-44"><rect class="cls-9" x="1704.16" y="434.04" width="239.36" height="161.2"/></g></g><g class="cls-5"><g class="cls-45"><path class="cls-9" d="M253.94,423.56c44.05,0,79.76-36.09,79.76-80.6s-35.71-80.6-79.76-80.6-79.76,36.09-79.76,80.6,35.71,80.6,79.76,80.6"/></g></g><g class="cls-5"><g class="cls-46"><rect class="cls-7" x="174.18" y="605.72" width="159.52" height="161.2"/><g class="cls-47"><path class="cls-9" d="M-22,171.29l446,1.73v89.35s0,80.59,80.2,80.59H766l-2,343.93h-510V858h90.94s79.06,0,79.06,80.6c0,78.62-.44,262.67-.44,262.67h91.73s78.71.08,78.71-80.52v-91.07h510V768.13s0-81.81,79.76-81.81h88.93V514.64h262.07s79.23,0,79.23-80.6V78.88s0-81,79.76-81h276V-107.19H-22Z"/></g></g></g><g class="cls-5"><g class="cls-48"><rect class="cls-9" x="174.18" y="777.4" width="159.52" height="161.2"/><g class="cls-49"><path class="cls-12" d="M-22,171.28l446,1.73v89.35s0,80.6,80.2,80.6H766l-2,343.92h-510V858h90.94s79.06,0,79.06,80.6c0,78.62-.44,262.68-.44,262.68h91.73s78.71.08,78.71-80.53v-91.07h510V768.12s0-81.81,79.76-81.81h88.93V514.64h262.07s79.23,0,79.23-80.6V78.87s0-81,79.76-81h276V-107.2H-22Z"/></g></g></g><g class="cls-5"><g class="cls-50"><path class="cls-9" d="M253.94,1110.27c44.05,0,79.76-36.09,79.76-80.6s-35.71-80.6-79.76-80.6-79.76,36.09-79.76,80.6,35.71,80.6,79.76,80.6"/></g></g><g class="cls-5"><g class="cls-51"><rect class="cls-9" x="854.17" y="-107.2" width="159.52" height="187.4"/></g></g><g class="cls-5"><g class="cls-52"><path class="cls-12" d="M933.93,423.56c44.05,0,79.76-36.09,79.76-80.6s-35.71-80.6-79.76-80.6-79.76,36.09-79.76,80.6,35.71,80.6,79.76,80.6"/></g></g><g class="cls-5"><g class="cls-53"><path class="cls-9" d="M933.93,766.91c44.05,0,79.76-36.08,79.76-80.59s-35.71-80.6-79.76-80.6-79.76,36.08-79.76,80.6,35.71,80.59,79.76,80.59"/></g></g><g class="cls-5"><g class="cls-54"><polygon class="cls-9" points="1013.69 1110.27 1013.69 949.07 963.37 949.07 854.17 949.07 684.17 949.07 684.17 1110.27 854.17 1110.27 963.37 1110.27 1013.69 1110.27"/><g class="cls-55"><path class="cls-12" d="M-22,171.29l446,1.73v89.35s0,80.59,80.2,80.59H766l-2,343.93h-510V858h90.94s79.06,0,79.06,80.6c0,78.62-.44,262.67-.44,262.67h91.73s78.71.08,78.71-80.52v-91.07h510V768.13s0-81.81,79.76-81.81h88.93V514.64h262.07s79.23,0,79.23-80.6V78.88s0-81,79.76-81h276V-107.19H-22Z"/></g></g></g><g class="cls-5"><g class="cls-56"><rect class="cls-9" x="1534.17" y="-107.2" width="159.52" height="187.4"/><g class="cls-57"><path class="cls-12" d="M-22,171.29l446,1.73v89.35s0,80.59,80.2,80.59H766l-2,343.93h-510V858h90.94s79.06,0,79.06,80.6c0,78.62-.44,262.67-.44,262.67h91.73s78.71.08,78.71-80.52v-91.07h510V768.13s0-81.81,79.76-81.81h88.93V514.64h262.07s79.23,0,79.23-80.6V78.88s0-81,79.76-81h276V-107.19H-22Z"/></g></g></g><g class="cls-5"><g class="cls-58"><rect class="cls-12" x="1534.17" y="90.69" width="159.52" height="161.2"/><g class="cls-59"><path class="cls-7" d="M-22,171.29l446,1.73v89.35s0,80.59,80.2,80.59H766l-2,343.93h-510V858h90.94s79.06,0,79.06,80.6c0,78.62-.44,262.67-.44,262.67h91.73s78.71.08,78.71-80.52v-91.07h510V768.13s0-81.81,79.76-81.81h88.93V514.64h262.07s79.23,0,79.23-80.6V78.88s0-81,79.76-81h276V-107.19H-22Z"/></g></g></g><g class="cls-5"><g class="cls-60"><rect class="cls-7" x="1534.17" y="434.04" width="159.52" height="161.2"/><g class="cls-61"><path class="cls-12" d="M-22,171.29l446,1.73v89.35s0,80.59,80.2,80.59H766l-2,343.93h-510V858h90.94s79.06,0,79.06,80.6c0,78.62-.44,262.67-.44,262.67h91.73s78.71.08,78.71-80.52v-91.07h510V768.13s0-81.81,79.76-81.81h88.93V514.64h262.07s79.23,0,79.23-80.6V78.88s0-81,79.76-81h276V-107.19H-22Z"/></g></g></g><g class="cls-5"><g class="cls-62"><path class="cls-9" d="M1613.92,938.59c44,0,79.76-36.08,79.76-80.6S1658,777.4,1613.92,777.4s-79.75,36.08-79.75,80.59,35.71,80.6,79.75,80.6"/></g></g><g class="cls-5"><g class="cls-63"><rect class="cls-7" x="1534.17" y="949.07" width="159.52" height="161.2"/></g></g><g class="cls-5"><g class="cls-64"><rect class="cls-7" x="1704.16" y="949.07" width="239.36" height="161.2"/></g></g><g class="cls-5"><g class="cls-65"><rect class="cls-9" x="514.18" y="262.36" width="159.52" height="161.2"/><g class="cls-66"><path class="cls-12" d="M-22,171.28l446,1.73v89.35s0,80.6,80.2,80.6H766l-2,343.92h-510V858h90.94s79.06,0,79.06,80.6c0,78.62-.44,262.68-.44,262.68h91.73s78.71.08,78.71-80.53v-91.07h510V768.12s0-81.81,79.76-81.81h88.93V514.64h262.07s79.23,0,79.23-80.6V78.87s0-81,79.76-81h276V-107.2H-22Z"/></g></g></g><g class="cls-5"><g class="cls-67"><rect class="cls-9" x="514.18" y="605.72" width="159.52" height="161.2"/></g></g><g class="cls-5"><g class="cls-68"><path class="cls-12" d="M593.93,938.59c44.05,0,79.76-36.08,79.76-80.6S638,777.4,593.93,777.4,514.18,813.48,514.18,858s35.71,80.6,79.75,80.6"/></g></g><g class="cls-5"><g class="cls-69"><g class="cls-70"><path class="cls-12" d="M-22,171.29l446,1.73v89.35s0,80.59,80.2,80.59H766l-2,343.93h-510V858h90.94s79.06,0,79.06,80.6c0,78.62-.44,262.67-.44,262.67h91.73s78.71.08,78.71-80.52v-91.07h510V768.13s0-81.81,79.76-81.81h88.93V514.64h262.07s79.23,0,79.23-80.6V78.88s0-81,79.76-81h276V-107.19H-22Z"/></g></g></g><g class="cls-5"><g class="cls-71"><rect class="cls-7" x="1194.17" y="-107.2" width="159.52" height="187.4"/></g></g><g class="cls-5"><g class="cls-72"><rect class="cls-9" x="1194.17" y="262.36" width="159.52" height="161.2"/></g></g><g class="cls-5"><g class="cls-73"><path class="cls-7" d="M1273.93,1110.27c44,0,79.76-36.09,79.76-80.6s-35.71-80.6-79.76-80.6-79.76,36.09-79.76,80.6,35.71,80.6,79.76,80.6"/></g></g><g class="cls-5"><g class="cls-74"><path class="cls-75" d="M1943.53-107.19H-22V171.29l446,1.73v89.35s0,80.59,80.2,80.59H766l-2,343.93h-510V858h90.94s79.06,0,79.06,80.61c0,78.62-.44,262.67-.44,262.67h91.73s78.71.08,78.71-80.52v-91.07h510V768.13s0-81.81,79.76-81.81h88.93V514.65h262.07s79.23,0,79.23-80.61V78.88s0-81,79.76-81h249.85"/></g></g></g></g></g></svg>