<svg xmlns="http://www.w3.org/2000/svg" xmlns:xlink="http://www.w3.org/1999/xlink" viewBox="0 0 44 44"><defs><style>.cls-1{fill:none;}.cls-2{clip-path:url(#clip-path);}.cls-3{fill:#00a984;}.cls-4{fill:#fff;}</style><clipPath id="clip-path"><rect class="cls-1" x="4" y="4" width="36" height="36"/></clipPath></defs><g id="Layer_1" data-name="Layer 1"><g class="cls-2"><path class="cls-3" d="M22,40A18,18,0,1,0,4,22,18,18,0,0,0,22,40"/><path class="cls-4" d="M19.21,24.69c-1.72,1.29-3.81,1.65-7.39-1s-4.45-2.59-4-3.63,3.91,1.51,4.08,1.23-5.38-3.09-4.36-4.76,5.46,3.2,5.71,2.72-5.67-4.65-4.08-6.13,5.65,4.82,6,4.33-4.4-4.61-2.91-5.72c1.78-1.32,5.16,6.12,5.88,5.9s-.45-3.91,1.72-3.91c1.47,0,1.12,3.89,1.12,3.89s1.13,4.85-1.8,7"/><path class="cls-4" d="M25.06,31.49c1.77,1.23,3.87,1.51,7.36-1.22s4.35-2.75,3.87-3.77-3.84,1.64-4,1.38,5.28-3.29,4.19-4.92-5.34,3.39-5.61,2.92S36.35,21,34.7,19.61s-5.47,5-5.87,4.54,4.23-4.76,2.7-5.82c-1.83-1.25-4.94,6.29-5.67,6.1s.31-3.92-1.86-3.85c-1.46.06-1,3.94-1,3.94s-1,4.88,2,7"/></g></g></svg>