<svg xmlns="http://www.w3.org/2000/svg" xmlns:xlink="http://www.w3.org/1999/xlink" viewBox="0 0 1920 1080"><defs><style>.cls-1,.cls-74{fill:none;}.cls-2{clip-path:url(#clip-path);}.cls-3{clip-path:url(#clip-path-2);}.cls-4{opacity:0.3;}.cls-5{clip-path:url(#clip-path-3);}.cls-6{fill:#00a984;}.cls-7{clip-path:url(#clip-path-4);}.cls-8{fill:#ed6b62;}.cls-9{clip-path:url(#clip-path-5);}.cls-10{clip-path:url(#clip-path-6);}.cls-11{fill:#fbbb21;}.cls-12{clip-path:url(#clip-path-7);}.cls-13{clip-path:url(#clip-path-8);}.cls-14{clip-path:url(#clip-path-9);}.cls-15{clip-path:url(#clip-path-10);}.cls-16{clip-path:url(#clip-path-11);}.cls-17{clip-path:url(#clip-path-12);}.cls-18{clip-path:url(#clip-path-13);}.cls-19{clip-path:url(#clip-path-14);}.cls-20{clip-path:url(#clip-path-15);}.cls-21{clip-path:url(#clip-path-16);}.cls-22{clip-path:url(#clip-path-17);}.cls-23{clip-path:url(#clip-path-18);}.cls-24{clip-path:url(#clip-path-19);}.cls-25{clip-path:url(#clip-path-20);}.cls-26{clip-path:url(#clip-path-21);}.cls-27{clip-path:url(#clip-path-22);}.cls-28{clip-path:url(#clip-path-23);}.cls-29{clip-path:url(#clip-path-24);}.cls-30{clip-path:url(#clip-path-25);}.cls-31{clip-path:url(#clip-path-26);}.cls-32{clip-path:url(#clip-path-27);}.cls-33{clip-path:url(#clip-path-28);}.cls-34{clip-path:url(#clip-path-29);}.cls-35{clip-path:url(#clip-path-30);}.cls-36{clip-path:url(#clip-path-31);}.cls-37{clip-path:url(#clip-path-32);}.cls-38{clip-path:url(#clip-path-33);}.cls-39{clip-path:url(#clip-path-34);}.cls-40{clip-path:url(#clip-path-35);}.cls-41{clip-path:url(#clip-path-36);}.cls-42{clip-path:url(#clip-path-37);}.cls-43{clip-path:url(#clip-path-38);}.cls-44{clip-path:url(#clip-path-39);}.cls-45{clip-path:url(#clip-path-40);}.cls-46{clip-path:url(#clip-path-41);}.cls-47{clip-path:url(#clip-path-42);}.cls-48{clip-path:url(#clip-path-43);}.cls-49{clip-path:url(#clip-path-44);}.cls-50{clip-path:url(#clip-path-45);}.cls-51{clip-path:url(#clip-path-46);}.cls-52{clip-path:url(#clip-path-47);}.cls-53{clip-path:url(#clip-path-48);}.cls-54{clip-path:url(#clip-path-49);}.cls-55{clip-path:url(#clip-path-50);}.cls-56{clip-path:url(#clip-path-51);}.cls-57{clip-path:url(#clip-path-52);}.cls-58{clip-path:url(#clip-path-53);}.cls-59{clip-path:url(#clip-path-54);}.cls-60{clip-path:url(#clip-path-55);}.cls-61{clip-path:url(#clip-path-56);}.cls-62{clip-path:url(#clip-path-57);}.cls-63{clip-path:url(#clip-path-58);}.cls-64{clip-path:url(#clip-path-59);}.cls-65{clip-path:url(#clip-path-60);}.cls-66{clip-path:url(#clip-path-61);}.cls-67{clip-path:url(#clip-path-62);}.cls-68{clip-path:url(#clip-path-63);}.cls-69{clip-path:url(#clip-path-64);}.cls-70{clip-path:url(#clip-path-65);}.cls-71{clip-path:url(#clip-path-66);}.cls-72{clip-path:url(#clip-path-67);}.cls-73{clip-path:url(#clip-path-68);}.cls-74{stroke:#00a984;stroke-width:1.5px;}</style><clipPath id="clip-path"><rect class="cls-1" x="-18.62" y="-108.58" width="1966.94" height="1416.58"/></clipPath><clipPath id="clip-path-2"><rect class="cls-1" x="-18.62" y="-108.58" width="1966.94" height="1416.58"/></clipPath><clipPath id="clip-path-3"><rect class="cls-1" x="-33.87" y="421.1" width="389" height="175.99"/></clipPath><clipPath id="clip-path-4"><rect class="cls-1" x="332.33" y="592.78" width="192.8" height="717.07"/></clipPath><clipPath id="clip-path-5"><polygon class="cls-1" points="508.49 1308 508.49 773.13 508.49 715.87 508.49 605.72 348.97 605.72 348.97 715.87 348.97 773.13 348.97 1308 508.49 1308"/></clipPath><clipPath id="clip-path-6"><rect class="cls-1" x="1692.32" y="592.78" width="192.8" height="347.67"/></clipPath><clipPath id="clip-path-7"><rect class="cls-1" x="672.33" y="421.1" width="362.8" height="175.99"/></clipPath><clipPath id="clip-path-8"><polygon class="cls-1" points="1018.49 595.24 1018.49 434.04 940.65 434.04 858.97 434.04 688.97 434.04 688.97 595.24 858.97 595.24 940.65 595.24 1018.49 595.24"/></clipPath><clipPath id="clip-path-9"><rect class="cls-1" x="1522.32" y="249.42" width="442.64" height="175.99"/></clipPath><clipPath id="clip-path-10"><polygon class="cls-1" points="1948.32 423.56 1948.32 262.36 1895.92 262.36 1817.6 262.36 1538.96 262.36 1538.96 423.56 1817.6 423.56 1895.92 423.56 1948.32 423.56"/></clipPath><clipPath id="clip-path-11"><rect class="cls-1" x="1182.32" y="421.1" width="192.8" height="519.34"/></clipPath><clipPath id="clip-path-12"><polygon class="cls-1" points="1358.48 938.59 1358.48 595.24 1358.48 562.4 1358.48 434.04 1198.97 434.04 1198.97 562.4 1198.97 595.24 1198.97 938.59 1358.48 938.59"/></clipPath><clipPath id="clip-path-13"><rect class="cls-1" x="502.33" y="77.74" width="702.79" height="175.99"/></clipPath><clipPath id="clip-path-14"><rect class="cls-1" x="-33.87" y="-120.14" width="219.01" height="373.87"/></clipPath><clipPath id="clip-path-15"><polygon class="cls-1" points="168.49 251.88 168.49 183.99 168.49 78 168.49 -107.2 -17.23 -107.2 -17.23 78 -17.23 183.99 -17.23 251.88 168.49 251.88"/></clipPath><clipPath id="clip-path-16"><rect class="cls-1" x="-33.87" y="249.42" width="219.01" height="175.99"/></clipPath><clipPath id="clip-path-17"><rect class="cls-1" x="-7.66" y="592.78" width="192.8" height="175.99"/></clipPath><clipPath id="clip-path-18"><rect class="cls-1" x="-33.87" y="936.13" width="219.01" height="175.99"/></clipPath><clipPath id="clip-path-19"><rect class="cls-1" x="672.33" y="249.42" width="192.8" height="175.99"/></clipPath><clipPath id="clip-path-20"><rect class="cls-1" x="688.97" y="262.36" width="159.52" height="161.2"/></clipPath><clipPath id="clip-path-21"><rect class="cls-1" x="672.33" y="764.45" width="192.8" height="175.99"/></clipPath><clipPath id="clip-path-22"><rect class="cls-1" x="1352.32" y="249.42" width="192.8" height="175.99"/></clipPath><clipPath id="clip-path-23"><rect class="cls-1" x="1352.32" y="592.78" width="192.8" height="175.99"/></clipPath><clipPath id="clip-path-24"><rect class="cls-1" x="1352.32" y="764.45" width="192.8" height="175.99"/></clipPath><clipPath id="clip-path-25"><rect class="cls-1" x="332.33" y="-93.93" width="192.8" height="175.99"/></clipPath><clipPath id="clip-path-26"><rect class="cls-1" x="332.33" y="249.42" width="192.8" height="175.99"/></clipPath><clipPath id="clip-path-27"><rect class="cls-1" x="348.97" y="262.36" width="159.52" height="161.2"/></clipPath><clipPath id="clip-path-28"><rect class="cls-1" x="332.33" y="77.74" width="192.8" height="175.99"/></clipPath><clipPath id="clip-path-29"><rect class="cls-1" x="348.97" y="90.69" width="159.52" height="161.2"/></clipPath><clipPath id="clip-path-30"><rect class="cls-1" x="1012.33" y="-93.93" width="192.8" height="175.99"/></clipPath><clipPath id="clip-path-31"><rect class="cls-1" x="1012.33" y="592.78" width="192.8" height="175.99"/></clipPath><clipPath id="clip-path-32"><rect class="cls-1" x="1028.97" y="605.72" width="159.52" height="161.2"/></clipPath><clipPath id="clip-path-33"><rect class="cls-1" x="1012.33" y="764.45" width="192.8" height="175.99"/></clipPath><clipPath id="clip-path-34"><rect class="cls-1" x="1028.97" y="777.4" width="159.52" height="161.2"/></clipPath><clipPath id="clip-path-35"><rect class="cls-1" x="1012.33" y="936.13" width="192.8" height="175.99"/></clipPath><clipPath id="clip-path-36"><rect class="cls-1" x="1028.97" y="949.07" width="159.52" height="161.2"/></clipPath><clipPath id="clip-path-37"><rect class="cls-1" x="1692.32" y="77.74" width="192.8" height="175.99"/></clipPath><clipPath id="clip-path-38"><rect class="cls-1" x="1692.32" y="421.1" width="272.64" height="175.99"/></clipPath><clipPath id="clip-path-39"><rect class="cls-1" x="162.33" y="249.42" width="192.8" height="175.99"/></clipPath><clipPath id="clip-path-40"><rect class="cls-1" x="162.33" y="592.78" width="192.8" height="175.99"/></clipPath><clipPath id="clip-path-41"><rect class="cls-1" x="178.98" y="605.72" width="159.52" height="161.2"/></clipPath><clipPath id="clip-path-42"><rect class="cls-1" x="162.33" y="764.45" width="192.8" height="175.99"/></clipPath><clipPath id="clip-path-43"><rect class="cls-1" x="178.98" y="777.4" width="159.52" height="161.2"/></clipPath><clipPath id="clip-path-44"><rect class="cls-1" x="162.33" y="936.13" width="192.8" height="175.99"/></clipPath><clipPath id="clip-path-45"><rect class="cls-1" x="842.33" y="-120.14" width="192.8" height="202.19"/></clipPath><clipPath id="clip-path-46"><rect class="cls-1" x="842.33" y="249.42" width="192.8" height="175.99"/></clipPath><clipPath id="clip-path-47"><rect class="cls-1" x="842.33" y="592.78" width="192.8" height="175.99"/></clipPath><clipPath id="clip-path-48"><rect class="cls-1" x="672.33" y="936.13" width="362.8" height="175.99"/></clipPath><clipPath id="clip-path-49"><polygon class="cls-1" points="1018.49 1110.27 1018.49 949.07 968.17 949.07 858.97 949.07 688.97 949.07 688.97 1110.27 858.97 1110.27 968.17 1110.27 1018.49 1110.27"/></clipPath><clipPath id="clip-path-50"><rect class="cls-1" x="1522.32" y="-120.14" width="192.8" height="202.19"/></clipPath><clipPath id="clip-path-51"><rect class="cls-1" x="1538.96" y="-107.2" width="159.52" height="187.4"/></clipPath><clipPath id="clip-path-52"><rect class="cls-1" x="1522.32" y="77.74" width="192.8" height="175.99"/></clipPath><clipPath id="clip-path-53"><rect class="cls-1" x="1538.96" y="90.69" width="159.52" height="161.2"/></clipPath><clipPath id="clip-path-54"><rect class="cls-1" x="1522.32" y="421.1" width="192.8" height="175.99"/></clipPath><clipPath id="clip-path-55"><rect class="cls-1" x="1538.96" y="434.04" width="159.52" height="161.2"/></clipPath><clipPath id="clip-path-56"><rect class="cls-1" x="1522.32" y="764.45" width="192.8" height="175.99"/></clipPath><clipPath id="clip-path-57"><rect class="cls-1" x="1522.32" y="936.13" width="192.8" height="175.99"/></clipPath><clipPath id="clip-path-58"><rect class="cls-1" x="1692.32" y="936.13" width="272.64" height="175.99"/></clipPath><clipPath id="clip-path-59"><rect class="cls-1" x="502.33" y="249.42" width="192.8" height="175.99"/></clipPath><clipPath id="clip-path-60"><rect class="cls-1" x="518.97" y="262.36" width="159.52" height="161.2"/></clipPath><clipPath id="clip-path-61"><rect class="cls-1" x="502.33" y="592.78" width="192.8" height="175.99"/></clipPath><clipPath id="clip-path-62"><rect class="cls-1" x="502.33" y="764.45" width="192.8" height="175.99"/></clipPath><clipPath id="clip-path-63"><rect class="cls-1" x="502.33" y="1107.81" width="192.8" height="202.04"/></clipPath><clipPath id="clip-path-64"><rect class="cls-1" x="518.97" y="1120.75" width="159.52" height="187.25"/></clipPath><clipPath id="clip-path-65"><rect class="cls-1" x="1182.32" y="-120.14" width="192.8" height="202.19"/></clipPath><clipPath id="clip-path-66"><rect class="cls-1" x="1182.32" y="249.42" width="192.8" height="175.99"/></clipPath><clipPath id="clip-path-67"><rect class="cls-1" x="1182.32" y="936.13" width="192.8" height="175.99"/></clipPath><clipPath id="clip-path-68"><rect class="cls-1" x="-35.26" y="-121.52" width="2000.22" height="1326.03"/></clipPath></defs><g id="Layer_1" data-name="Layer 1"><g class="cls-2"><g class="cls-3"><g class="cls-4"><g class="cls-5"><polygon class="cls-6" points="338.49 595.24 338.49 434.04 260.03 434.04 166.29 434.04 -17.23 434.04 -17.23 595.24 166.29 595.24 260.03 595.24 338.49 595.24"/></g></g><g class="cls-4"><g class="cls-7"><polygon class="cls-8" points="508.49 1308 508.49 773.13 508.49 715.87 508.49 605.72 348.97 605.72 348.97 715.87 348.97 773.13 348.97 1308 508.49 1308"/><g class="cls-9"><path class="cls-6" d="M-17.23,171.29l446,1.73v89.35s0,80.59,80.2,80.59H770.74l-2,343.93h-510V858h90.94s79.06,0,79.06,80.6c0,78.62-.43,262.67-.43,262.67H520s78.71.08,78.71-80.52v-91.07h510V768.13s0-81.81,79.76-81.81h88.93V514.64h262.08s79.23,0,79.23-80.6V78.88s0-81,79.76-81h276V-107.19H-17.23Z"/></g></g></g><g class="cls-4"><g class="cls-10"><polygon class="cls-11" points="1868.48 938.59 1868.48 877.99 1868.48 832.25 1868.48 605.72 1708.96 605.72 1708.96 832.25 1708.96 877.99 1708.96 938.59 1868.48 938.59"/></g></g><g class="cls-4"><g class="cls-12"><polygon class="cls-8" points="1018.49 595.24 1018.49 434.04 940.65 434.04 858.97 434.04 688.97 434.04 688.97 595.24 858.97 595.24 940.65 595.24 1018.49 595.24"/><g class="cls-13"><path class="cls-6" d="M-17.23,171.29l446,1.73v89.35s0,80.59,80.2,80.59H770.74l-2,343.93h-510V858h90.94s79.06,0,79.06,80.6c0,78.62-.43,262.67-.43,262.67H520s78.71.08,78.71-80.52v-91.07h510V768.13s0-81.81,79.76-81.81h88.93V514.64h262.08s79.23,0,79.23-80.6V78.88s0-81,79.76-81h276V-107.19H-17.23Z"/></g></g></g><g class="cls-4"><g class="cls-14"><polygon class="cls-6" points="1948.32 423.56 1948.32 262.36 1895.92 262.36 1817.6 262.36 1538.96 262.36 1538.96 423.56 1817.6 423.56 1895.92 423.56 1948.32 423.56"/><g class="cls-15"><path class="cls-8" d="M-17.23,171.28l446,1.73v89.35s0,80.6,80.2,80.6H770.74l-2,343.92h-510V858h90.94s79.06,0,79.06,80.6c0,78.62-.43,262.68-.43,262.68H520s78.71.08,78.71-80.53v-91.07h510V768.12s0-81.81,79.76-81.81h88.93V514.64h262.08s79.23,0,79.23-80.6V78.87s0-81,79.76-81h276V-107.2H-17.23Z"/></g></g></g><g class="cls-4"><g class="cls-16"><polygon class="cls-11" points="1358.48 938.59 1358.48 595.24 1358.48 562.4 1358.48 434.04 1198.96 434.04 1198.96 562.4 1198.96 595.24 1198.96 938.59 1358.48 938.59"/><g class="cls-17"><path class="cls-6" d="M-17.23,171.28l446,1.73v89.35s0,80.6,80.2,80.6H770.74l-2,343.92h-510V858h90.94s79.06,0,79.06,80.6c0,78.62-.43,262.68-.43,262.68H520s78.71.08,78.71-80.53v-91.07h510V768.12s0-81.81,79.76-81.81h88.93V514.64h262.08s79.23,0,79.23-80.6V78.87s0-81,79.76-81h276V-107.2H-17.23Z"/></g></g></g><g class="cls-4"><g class="cls-18"><polygon class="cls-11" points="1188.48 251.88 1188.48 90.69 1074.31 90.69 1028.97 90.69 518.97 90.69 518.97 251.88 1028.97 251.88 1074.31 251.88 1188.48 251.88"/></g></g><g class="cls-4"><g class="cls-19"><polygon class="cls-6" points="168.49 251.88 168.49 183.99 168.49 78 168.49 -107.2 -17.23 -107.2 -17.23 78 -17.23 183.99 -17.23 251.88 168.49 251.88"/><g class="cls-20"><path class="cls-11" d="M-17.23,171.29l446,1.73v89.35s0,80.59,80.2,80.59H770.74l-2,343.93h-510V858h90.94s79.06,0,79.06,80.6c0,78.62-.43,262.67-.43,262.67H520s78.71.08,78.71-80.52v-91.07h510V768.13s0-81.81,79.76-81.81h88.93V514.64h262.08s79.23,0,79.23-80.6V78.88s0-81,79.76-81h276V-107.19H-17.23Z"/></g></g></g><g class="cls-4"><g class="cls-21"><rect class="cls-8" x="-17.23" y="262.36" width="185.72" height="161.2"/></g></g><g class="cls-4"><g class="cls-22"><path class="cls-11" d="M88.73,766.91c44.05,0,79.76-36.08,79.76-80.59s-35.71-80.6-79.76-80.6S9,641.8,9,686.32s35.71,80.59,79.75,80.59"/></g></g><g class="cls-4"><g class="cls-23"><rect class="cls-11" x="-17.23" y="949.07" width="185.72" height="161.2"/></g></g><g class="cls-4"><g class="cls-24"><rect class="cls-6" x="688.97" y="262.36" width="159.52" height="161.2"/><g class="cls-25"><path class="cls-8" d="M-17.23,171.28l446,1.73v89.35s0,80.6,80.2,80.6H770.74l-2,343.92h-510V858h90.94s79.06,0,79.06,80.6c0,78.62-.43,262.68-.43,262.68H520s78.71.08,78.71-80.53v-91.07h510V768.12s0-81.81,79.76-81.81h88.93V514.64h262.08s79.23,0,79.23-80.6V78.87s0-81,79.76-81h276V-107.2H-17.23Z"/></g></g></g><g class="cls-4"><g class="cls-26"><rect class="cls-8" x="688.97" y="777.4" width="159.52" height="161.2"/></g></g><g class="cls-4"><g class="cls-27"><path class="cls-8" d="M1448.72,423.56c44,0,79.76-36.09,79.76-80.6s-35.71-80.6-79.76-80.6S1369,298.45,1369,343s35.71,80.6,79.76,80.6"/></g></g><g class="cls-4"><g class="cls-28"><path class="cls-11" d="M1448.72,766.91c44,0,79.76-36.08,79.76-80.59s-35.71-80.6-79.76-80.6S1369,641.8,1369,686.32s35.71,80.59,79.76,80.59"/></g></g><g class="cls-4"><g class="cls-29"><rect class="cls-8" x="1368.97" y="777.4" width="159.52" height="161.2"/></g></g><g class="cls-4"><g class="cls-30"><path class="cls-6" d="M428.73,80.2c44,0,79.76-36.08,79.76-80.59S472.78-81,428.73-81,349-44.91,349-.39,384.68,80.2,428.73,80.2"/></g></g><g class="cls-4"><g class="cls-31"><rect class="cls-6" x="348.97" y="262.36" width="159.52" height="161.2"/><g class="cls-32"><path class="cls-8" d="M-17.23,171.28l446,1.73v89.35s0,80.6,80.2,80.6H770.74l-2,343.92h-510V858h90.94s79.06,0,79.06,80.6c0,78.62-.43,262.68-.43,262.68H520s78.71.08,78.71-80.53v-91.07h510V768.12s0-81.81,79.76-81.81h88.93V514.64h262.08s79.23,0,79.23-80.6V78.87s0-81,79.76-81h276V-107.2H-17.23Z"/></g></g></g><g class="cls-4"><g class="cls-33"><rect class="cls-11" x="348.97" y="90.69" width="159.52" height="161.2"/><g class="cls-34"><path class="cls-6" d="M-17.23,171.29l446,1.73v89.35s0,80.59,80.2,80.59H770.74l-2,343.93h-510V858h90.94s79.06,0,79.06,80.6c0,78.62-.43,262.67-.43,262.67H520s78.71.08,78.71-80.52v-91.07h510V768.13s0-81.81,79.76-81.81h88.93V514.64h262.08s79.23,0,79.23-80.6V78.88s0-81,79.76-81h276V-107.19H-17.23Z"/></g></g></g><g class="cls-4"><g class="cls-35"><path class="cls-8" d="M1108.73,80.2c44,0,79.75-36.08,79.75-80.59S1152.77-81,1108.73-81,1029-44.91,1029-.39s35.71,80.59,79.76,80.59"/></g></g><g class="cls-4"><g class="cls-36"><rect class="cls-6" x="1028.97" y="605.72" width="159.52" height="161.2"/><g class="cls-37"><path class="cls-8" d="M-17.23,171.29l446,1.73v89.35s0,80.59,80.2,80.59H770.74l-2,343.93h-510V858h90.94s79.06,0,79.06,80.6c0,78.62-.43,262.67-.43,262.67H520s78.71.08,78.71-80.52v-91.07h510V768.13s0-81.81,79.76-81.81h88.93V514.64h262.08s79.23,0,79.23-80.6V78.88s0-81,79.76-81h276V-107.19H-17.23Z"/></g></g></g><g class="cls-4"><g class="cls-38"><rect class="cls-8" x="1028.97" y="777.4" width="159.52" height="161.2"/><g class="cls-39"><path class="cls-11" d="M-17.23,171.28l446,1.73v89.35s0,80.6,80.2,80.6H770.74l-2,343.92h-510V858h90.94s79.06,0,79.06,80.6c0,78.62-.43,262.68-.43,262.68H520s78.71.08,78.71-80.53v-91.07h510V768.12s0-81.81,79.76-81.81h88.93V514.64h262.08s79.23,0,79.23-80.6V78.87s0-81,79.76-81h276V-107.2H-17.23Z"/></g></g></g><g class="cls-4"><g class="cls-40"><rect class="cls-8" x="1028.97" y="949.07" width="159.52" height="161.2"/><g class="cls-41"><path class="cls-6" d="M-17.23,171.29l446,1.73v89.35s0,80.59,80.2,80.59H770.74l-2,343.93h-510V858h90.94s79.06,0,79.06,80.6c0,78.62-.43,262.67-.43,262.67H520s78.71.08,78.71-80.52v-91.07h510V768.13s0-81.81,79.76-81.81h88.93V514.64h262.08s79.23,0,79.23-80.6V78.88s0-81,79.76-81h276V-107.19H-17.23Z"/></g></g></g><g class="cls-4"><g class="cls-42"><path class="cls-11" d="M1788.72,251.88c44,0,79.76-36.08,79.76-80.6s-35.71-80.59-79.76-80.59S1709,126.77,1709,171.28s35.71,80.6,79.76,80.6"/></g></g><g class="cls-4"><g class="cls-43"><rect class="cls-8" x="1708.96" y="434.04" width="239.36" height="161.2"/></g></g><g class="cls-4"><g class="cls-44"><path class="cls-8" d="M258.73,423.56c44,0,79.76-36.09,79.76-80.6s-35.71-80.6-79.76-80.6S179,298.45,179,343s35.7,80.6,79.75,80.6"/></g></g><g class="cls-4"><g class="cls-45"><rect class="cls-6" x="178.98" y="605.72" width="159.52" height="161.2"/><g class="cls-46"><path class="cls-8" d="M-17.23,171.29l446,1.73v89.35s0,80.59,80.2,80.59H770.74l-2,343.93h-510V858h90.94s79.06,0,79.06,80.6c0,78.62-.43,262.67-.43,262.67H520s78.71.08,78.71-80.52v-91.07h510V768.13s0-81.81,79.76-81.81h88.93V514.64h262.08s79.23,0,79.23-80.6V78.88s0-81,79.76-81h276V-107.19H-17.23Z"/></g></g></g><g class="cls-4"><g class="cls-47"><rect class="cls-8" x="178.98" y="777.4" width="159.52" height="161.2"/><g class="cls-48"><path class="cls-11" d="M-17.23,171.28l446,1.73v89.35s0,80.6,80.2,80.6H770.74l-2,343.92h-510V858h90.94s79.06,0,79.06,80.6c0,78.62-.43,262.68-.43,262.68H520s78.71.08,78.71-80.53v-91.07h510V768.12s0-81.81,79.76-81.81h88.93V514.64h262.08s79.23,0,79.23-80.6V78.87s0-81,79.76-81h276V-107.2H-17.23Z"/></g></g></g><g class="cls-4"><g class="cls-49"><path class="cls-8" d="M258.73,1110.27c44,0,79.76-36.09,79.76-80.6s-35.71-80.6-79.76-80.6S179,985.16,179,1029.67s35.7,80.6,79.75,80.6"/></g></g><g class="cls-4"><g class="cls-50"><rect class="cls-8" x="858.97" y="-107.2" width="159.52" height="187.4"/></g></g><g class="cls-4"><g class="cls-51"><path class="cls-11" d="M938.73,423.56c44,0,79.75-36.09,79.75-80.6s-35.7-80.6-79.75-80.6S859,298.45,859,343s35.71,80.6,79.76,80.6"/></g></g><g class="cls-4"><g class="cls-52"><path class="cls-8" d="M938.73,766.91c44,0,79.75-36.08,79.75-80.59s-35.7-80.6-79.75-80.6S859,641.8,859,686.32s35.71,80.59,79.76,80.59"/></g></g><g class="cls-4"><g class="cls-53"><polygon class="cls-8" points="1018.49 1110.27 1018.49 949.07 968.17 949.07 858.97 949.07 688.97 949.07 688.97 1110.27 858.97 1110.27 968.17 1110.27 1018.49 1110.27"/><g class="cls-54"><path class="cls-11" d="M-17.23,171.29l446,1.73v89.35s0,80.59,80.2,80.59H770.74l-2,343.93h-510V858h90.94s79.06,0,79.06,80.6c0,78.62-.43,262.67-.43,262.67H520s78.71.08,78.71-80.52v-91.07h510V768.13s0-81.81,79.76-81.81h88.93V514.64h262.08s79.23,0,79.23-80.6V78.88s0-81,79.76-81h276V-107.19H-17.23Z"/></g></g></g><g class="cls-4"><g class="cls-55"><rect class="cls-8" x="1538.96" y="-107.2" width="159.52" height="187.4"/><g class="cls-56"><path class="cls-11" d="M-17.23,171.29l446,1.73v89.35s0,80.59,80.2,80.59H770.74l-2,343.93h-510V858h90.94s79.06,0,79.06,80.6c0,78.62-.43,262.67-.43,262.67H520s78.71.08,78.71-80.52v-91.07h510V768.13s0-81.81,79.76-81.81h88.93V514.64h262.08s79.23,0,79.23-80.6V78.88s0-81,79.76-81h276V-107.19H-17.23Z"/></g></g></g><g class="cls-4"><g class="cls-57"><rect class="cls-11" x="1538.96" y="90.69" width="159.52" height="161.2"/><g class="cls-58"><path class="cls-6" d="M-17.23,171.29l446,1.73v89.35s0,80.59,80.2,80.59H770.74l-2,343.93h-510V858h90.94s79.06,0,79.06,80.6c0,78.62-.43,262.67-.43,262.67H520s78.71.08,78.71-80.52v-91.07h510V768.13s0-81.81,79.76-81.81h88.93V514.64h262.08s79.23,0,79.23-80.6V78.88s0-81,79.76-81h276V-107.19H-17.23Z"/></g></g></g><g class="cls-4"><g class="cls-59"><rect class="cls-6" x="1538.96" y="434.04" width="159.52" height="161.2"/><g class="cls-60"><path class="cls-11" d="M-17.23,171.29l446,1.73v89.35s0,80.59,80.2,80.59H770.74l-2,343.93h-510V858h90.94s79.06,0,79.06,80.6c0,78.62-.43,262.67-.43,262.67H520s78.71.08,78.71-80.52v-91.07h510V768.13s0-81.81,79.76-81.81h88.93V514.64h262.08s79.23,0,79.23-80.6V78.88s0-81,79.76-81h276V-107.19H-17.23Z"/></g></g></g><g class="cls-4"><g class="cls-61"><path class="cls-8" d="M1618.72,938.59c44,0,79.76-36.08,79.76-80.6s-35.71-80.59-79.76-80.59S1539,813.48,1539,858s35.71,80.6,79.76,80.6"/></g></g><g class="cls-4"><g class="cls-62"><rect class="cls-6" x="1538.96" y="949.07" width="159.52" height="161.2"/></g></g><g class="cls-4"><g class="cls-63"><rect class="cls-6" x="1708.96" y="949.07" width="239.36" height="161.2"/></g></g><g class="cls-4"><g class="cls-64"><rect class="cls-8" x="518.97" y="262.36" width="159.52" height="161.2"/><g class="cls-65"><path class="cls-11" d="M-17.23,171.28l446,1.73v89.35s0,80.6,80.2,80.6H770.74l-2,343.92h-510V858h90.94s79.06,0,79.06,80.6c0,78.62-.43,262.68-.43,262.68H520s78.71.08,78.71-80.53v-91.07h510V768.12s0-81.81,79.76-81.81h88.93V514.64h262.08s79.23,0,79.23-80.6V78.87s0-81,79.76-81h276V-107.2H-17.23Z"/></g></g></g><g class="cls-4"><g class="cls-66"><rect class="cls-8" x="518.97" y="605.72" width="159.52" height="161.2"/></g></g><g class="cls-4"><g class="cls-67"><path class="cls-11" d="M598.73,938.59c44,0,79.76-36.08,79.76-80.6s-35.71-80.59-79.76-80.59S519,813.48,519,858s35.71,80.6,79.76,80.6"/></g></g><g class="cls-4"><g class="cls-68"><g class="cls-69"><path class="cls-11" d="M-17.23,171.29l446,1.73v89.35s0,80.59,80.2,80.59H770.74l-2,343.93h-510V858h90.94s79.06,0,79.06,80.6c0,78.62-.43,262.67-.43,262.67H520s78.71.08,78.71-80.52v-91.07h510V768.13s0-81.81,79.76-81.81h88.93V514.64h262.08s79.23,0,79.23-80.6V78.88s0-81,79.76-81h276V-107.19H-17.23Z"/></g></g></g><g class="cls-4"><g class="cls-70"><rect class="cls-6" x="1198.97" y="-107.2" width="159.52" height="187.4"/></g></g><g class="cls-4"><g class="cls-71"><rect class="cls-8" x="1198.97" y="262.36" width="159.52" height="161.2"/></g></g><g class="cls-4"><g class="cls-72"><path class="cls-6" d="M1278.72,1110.27c44,0,79.76-36.09,79.76-80.6s-35.71-80.6-79.76-80.6-79.75,36.09-79.75,80.6,35.7,80.6,79.75,80.6"/></g></g><g class="cls-4"><g class="cls-73"><path class="cls-74" d="M1948.32-107.19H-17.23V171.29l446,1.73v89.35s0,80.59,80.2,80.59H770.74l-2,343.93h-510V858h90.94s79.06,0,79.06,80.61c0,78.62-.43,262.67-.43,262.67H520s78.71.08,78.71-80.52v-91.07h510V768.13s0-81.81,79.76-81.81h88.93V514.65h262.08s79.23,0,79.23-80.61V78.88s0-81,79.76-81h249.84"/></g></g></g></g></g></svg>