<svg xmlns="http://www.w3.org/2000/svg" xmlns:xlink="http://www.w3.org/1999/xlink" viewBox="0 0 44 44"><defs><style>.cls-1{fill:none;}.cls-2{fill:#00a984;}.cls-3{clip-path:url(#clip-path);}.cls-4{fill:#fff;}</style><clipPath id="clip-path"><rect class="cls-1" x="2.22" y="2.69" width="39.69" height="39.69"/></clipPath></defs><g id="Layer_1" data-name="Layer 1"><rect class="cls-2" x="2.22" y="2.69" width="39.69" height="39.69"/><g class="cls-3"><path class="cls-4" d="M25.23,19.26c-.11.2-.3.19-.45.23a9.19,9.19,0,0,1-2.45.2c-.5,0-1-.06-1.52-.1a.69.69,0,0,0-.44.09.81.81,0,0,1-1-.11.78.78,0,0,1-.11-1,.38.38,0,0,0,0-.4A17,17,0,0,1,18.13,12c0-.18,0-.37.05-.65a2.56,2.56,0,0,1,.49.76,13.63,13.63,0,0,1,1,3.36c.12.79.16,1.6.23,2.41v.21a2.46,2.46,0,0,1,.54.26,2.38,2.38,0,0,1,.38.46,3.76,3.76,0,0,1,.44-.09,8.52,8.52,0,0,1,3.26.17,1.6,1.6,0,0,1,.73.35m3.06-1.35a8.26,8.26,0,1,0-9.95,8.17l.17-.33c.35-.76.69-1.51,1-2.27.09-.17.1-.46.35-.46s.26.28.34.46c.34.78.67,1.56,1,2.34l.16.33a8.2,8.2,0,0,0,6.88-8.24"/><path class="cls-4" d="M25.4,36.57a4.31,4.31,0,1,1,4.28-4.31,4.31,4.31,0,0,1-4.28,4.31"/><path class="cls-4" d="M21.91,27.29l-.19-.4a2.73,2.73,0,0,1-.14-.36,8.6,8.6,0,0,0,6.3-4.84,8.38,8.38,0,0,0,.6-5.68,8.64,8.64,0,0,0-16.82,0,8.31,8.31,0,0,0,1.1,6.56,8.62,8.62,0,0,0,5.42,3.85c-.14.28-.25.52-.36.75A9.48,9.48,0,0,1,19.91,8.5a9.49,9.49,0,0,1,2,18.79"/><path class="cls-4" d="M33.49,32.05H30.18a5,5,0,0,0-1-2.7,5,5,0,0,0-2.37-1.66V25.48h6.68Z"/><path class="cls-4" d="M19.94,23.94a3.41,3.41,0,0,1,.17.33l1.74,4.34a.45.45,0,0,1-.05.53,4.75,4.75,0,0,0-.95,4.61c0,.07,0,.14.06.27L15.4,34c1.48-3.38,3-6.7,4.42-10h.12"/></g></g></svg>