<svg xmlns="http://www.w3.org/2000/svg" xmlns:xlink="http://www.w3.org/1999/xlink" viewBox="0 0 50 50"><defs><style>.cls-1{fill:none;}.cls-2{clip-path:url(#clip-path);}.cls-3{fill:#00a984;}.cls-4{fill:#1d1d1b;}.cls-5{fill:#fff;}.cls-6{fill:#a7d5c2;}.cls-7{opacity:0.4;}.cls-8{clip-path:url(#clip-path-3);}.cls-9{clip-path:url(#clip-path-4);}</style><clipPath id="clip-path"><rect class="cls-1" x="1.84" y="1.8" width="46.28" height="46.28"/></clipPath><clipPath id="clip-path-3"><rect class="cls-1" x="2.93" y="19.86" width="24.22" height="10.29"/></clipPath><clipPath id="clip-path-4"><rect class="cls-1" x="22.82" y="19.86" width="24.22" height="10.29"/></clipPath></defs><g id="Layer_1" data-name="Layer 1"><g class="cls-2"><g class="cls-2"><path class="cls-3" d="M25,48.09A23.15,23.15,0,1,0,1.84,25,23.14,23.14,0,0,0,25,48.09"/><path class="cls-4" d="M19,21.88A3.93,3.93,0,1,1,15,18,3.93,3.93,0,0,1,19,21.88"/><path class="cls-5" d="M15,20.57a1.32,1.32,0,1,1-1.32-1.31A1.32,1.32,0,0,1,15,20.57"/><path class="cls-5" d="M17.07,23.53a.38.38,0,0,1-.39.39.39.39,0,0,1-.39-.39.4.4,0,0,1,.39-.39.39.39,0,0,1,.39.39"/><path class="cls-4" d="M38.86,21.88A3.93,3.93,0,1,1,34.93,18a3.93,3.93,0,0,1,3.93,3.92"/><path class="cls-5" d="M34.92,20.57a1.32,1.32,0,1,1-1.32-1.31,1.32,1.32,0,0,1,1.32,1.31"/><path class="cls-5" d="M37,23.53a.39.39,0,1,1-.77,0,.39.39,0,1,1,.77,0"/><path class="cls-4" d="M21.05,28a3.93,3.93,0,0,0,7.86,0Z"/><path class="cls-6" d="M27.57,31a3.91,3.91,0,0,0-5.18,0,3.88,3.88,0,0,0,5.18,0"/><g class="cls-7"><g class="cls-8"><path class="cls-5" d="M18.14,28c0,.63-1.39,1.14-3.11,1.14s-3.1-.51-3.1-1.14,1.39-1.15,3.1-1.15,3.11.52,3.11,1.15"/></g></g><g class="cls-7"><g class="cls-9"><path class="cls-5" d="M38,28c0,.63-1.39,1.14-3.11,1.14s-3.11-.51-3.11-1.14,1.39-1.15,3.11-1.15S38,27.38,38,28"/></g></g></g></g></g></svg>