<svg xmlns="http://www.w3.org/2000/svg" xmlns:xlink="http://www.w3.org/1999/xlink" viewBox="0 0 44 44"><defs><style>.cls-1,.cls-5,.cls-6{fill:none;}.cls-2{clip-path:url(#clip-path);}.cls-3{fill:#e94362;}.cls-4{fill:#fff;}.cls-5,.cls-6{stroke:#e94362;stroke-linecap:round;stroke-width:0.56px;}.cls-5{stroke-miterlimit:10;}.cls-6{stroke-linejoin:round;}</style><clipPath id="clip-path"><rect class="cls-1" x="4" y="4" width="36" height="36"/></clipPath></defs><g id="Layer_1" data-name="Layer 1"><g class="cls-2"><path class="cls-3" d="M22,40A18,18,0,1,0,4,22,18,18,0,0,0,22,40"/><path class="cls-4" d="M18.66,24.41c-.34-.22-.5-1.34-.5-1.34m-2,1.69c.27-.3.12-1.42.12-1.42M20,26.79l.25,1.78m1.28-.18a.7.7,0,0,0,.6-.78l0-.23c-.27-2-1.31-2.83-3.45-3l-1.13,1-1.37-.69c-2,.73-2.78,1.84-2.5,3.81l0,.23a.71.71,0,0,0,.79.59Zm-6-1,.25,1.79m3.48-8.36c-.16,1.21-.91,2.49-2,2.64s-2.16-.88-2.64-2M22.84,15l-3.62.52a1.22,1.22,0,0,1-1.38-1l0-.29a1.21,1.21,0,0,1,1-1.37l3.62-.51a1.21,1.21,0,0,1,1.38,1l0,.29a1.21,1.21,0,0,1-1,1.36m1.61,10.53,3.06-.43m-3.37-1.85,7-1M23.82,21l7-1M23.5,18.71l7-1m-6.63-4.13,6.37-.89A2.71,2.71,0,0,1,33.31,15l1.54,11A2.72,2.72,0,0,1,32.53,29L13.76,31.67a2.71,2.71,0,0,1-3.07-2.3l-1.54-11a2.71,2.71,0,0,1,2.32-3.05l6.36-.9"/><path class="cls-5" d="M18.66,24.41c-.34-.22-.5-1.34-.5-1.34m-2,1.69c.27-.3.12-1.42.12-1.42M20,26.79l.25,1.78m1.28-.18a.7.7,0,0,0,.6-.78l0-.23c-.27-2-1.31-2.83-3.45-3l-1.13,1-1.37-.69c-2,.73-2.78,1.84-2.5,3.81l0,.23a.71.71,0,0,0,.79.59Zm-6-1,.25,1.79m3.48-8.36c-.16,1.21-.91,2.49-2,2.64s-2.16-.88-2.64-2M22.84,15l-3.62.52a1.22,1.22,0,0,1-1.38-1l0-.29a1.21,1.21,0,0,1,1-1.37l3.62-.51a1.21,1.21,0,0,1,1.38,1l0,.29A1.21,1.21,0,0,1,22.84,15Zm1.61,10.53,3.06-.43m-3.37-1.85,7-1M23.82,21l7-1M23.5,18.71l7-1m-6.63-4.13,6.37-.89A2.71,2.71,0,0,1,33.31,15l1.54,11A2.72,2.72,0,0,1,32.53,29L13.76,31.67a2.71,2.71,0,0,1-3.07-2.3l-1.54-11a2.71,2.71,0,0,1,2.32-3.05l6.36-.9"/><path class="cls-3" d="M16.18,17c2.13-.3,3.15.34,2.89,3.46a.13.13,0,0,1-.24,0c-.18-.43-.48-1.3-.48-1.3a.22.22,0,0,0-.25-.16c-.75.1-1.83-.15-1.8-.06l.43.77-1.49-.52a.33.33,0,0,0-.38.12l-.14,1.71a.12.12,0,0,1-.24,0c-1.09-2.91-.31-3.81,1.82-4.11"/><path class="cls-6" d="M16.18,17c2.13-.3,3.15.34,2.89,3.46a.13.13,0,0,1-.24,0c-.18-.43-.48-1.3-.48-1.3a.22.22,0,0,0-.25-.16c-.75.1-1.83-.15-1.8-.06l.43.77-1.49-.52a.33.33,0,0,0-.38.12l-.14,1.71a.12.12,0,0,1-.24,0c-1.09-2.91-.31-3.81,1.82-4.11"/></g></g></svg>