<svg xmlns="http://www.w3.org/2000/svg" xmlns:xlink="http://www.w3.org/1999/xlink" viewBox="0 0 44 44"><defs><style>.cls-1{fill:none;}.cls-2{clip-path:url(#clip-path);}.cls-3{fill:#e94362;}.cls-4{fill:#fff;}</style><clipPath id="clip-path"><rect class="cls-1" x="4" y="4" width="36" height="36"/></clipPath></defs><g id="Layer_1" data-name="Layer 1"><g class="cls-2"><path class="cls-3" d="M22,40A18,18,0,1,0,4,22,18,18,0,0,0,22,40"/><path class="cls-4" d="M35.43,27.38a1.3,1.3,0,0,0-1-.3L22,28.67,9.59,27.08a1.31,1.31,0,0,0-1,.3,1.29,1.29,0,0,0,.67,2.26L19.6,31a3,3,0,0,0,4.8,0l10.37-1.33a1.29,1.29,0,0,0,.66-2.26"/><path class="cls-4" d="M9.42,26.07h1.12a20.21,20.21,0,0,1,6.57,1.09,0,0,0,0,1,0,0l3.1.4a21,21,0,0,0-9.68-2.37H9.42a.44.44,0,0,0,0,.87"/><path class="cls-4" d="M12,24.33h1.34a9.34,9.34,0,0,1,7.06,3.27l1.22.15a10.22,10.22,0,0,0-8.28-4.28H12a.43.43,0,0,0,0,.86"/><path class="cls-4" d="M22.36,27.75l1.22-.15a9.34,9.34,0,0,1,7.06-3.27H32a.43.43,0,0,0,0-.86H30.64a10.21,10.21,0,0,0-8.28,4.28"/><path class="cls-4" d="M26.87,27.17a20.07,20.07,0,0,1,6.59-1.1h1.12a.44.44,0,0,0,0-.87H33.46a21,21,0,0,0-9.68,2.37Z"/><path class="cls-4" d="M19.83,13.92h.38l-.28,2.61H22a.43.43,0,0,1-.43-.44v-.86a.43.43,0,1,1,.86,0v.86a.43.43,0,0,1-.43.44h2.07l-.28-2.61h.38a.43.43,0,0,0,.41-.29.44.44,0,0,0-.15-.49,5.28,5.28,0,0,1-2-3.16v0A.4.4,0,0,0,22,9.61a.45.45,0,0,0-.43.37,5.28,5.28,0,0,1-2,3.16.44.44,0,0,0-.15.49.43.43,0,0,0,.41.29"/><path class="cls-4" d="M19.4,17.39v4.78a1.26,1.26,0,0,1-.08.43h.95V20.86a1.74,1.74,0,0,1,3.47,0V22.6h.94a1.26,1.26,0,0,1-.08-.43V17.39Z"/><path class="cls-4" d="M22.87,20.86a.87.87,0,0,0-1.74,0V22.6h1.74Z"/><path class="cls-4" d="M13.76,16.53h.43v5.64a.44.44,0,0,0,.44.43H18.1a.43.43,0,0,0,.43-.43V16.53H19a.44.44,0,0,0,.44-.44v-.86a.44.44,0,0,0-.44-.44.44.44,0,0,0-.43.44v.43h-.87v-.43a.43.43,0,1,0-.86,0v.43h-.87v-.43a.44.44,0,0,0-.44-.44.44.44,0,0,0-.43.44v.43h-.87v-.43a.43.43,0,1,0-.86,0v.86a.44.44,0,0,0,.43.44m2.17,1.3a.43.43,0,0,1,.43-.43.44.44,0,0,1,.44.43v.87a.44.44,0,0,1-.44.43.43.43,0,0,1-.43-.43Z"/><path class="cls-4" d="M25,16.53h.43v5.64a.43.43,0,0,0,.43.43h3.47a.44.44,0,0,0,.44-.43V16.53h.43a.44.44,0,0,0,.43-.44v-.86a.43.43,0,1,0-.86,0v.43h-.87v-.43a.44.44,0,0,0-.43-.44.44.44,0,0,0-.44.44v.43H27.2v-.43a.43.43,0,1,0-.86,0v.43h-.87v-.43a.44.44,0,0,0-.43-.44.44.44,0,0,0-.44.44v.86a.44.44,0,0,0,.44.44m2.16,1.3a.44.44,0,0,1,.44-.43.43.43,0,0,1,.43.43v.87a.43.43,0,0,1-.43.43.44.44,0,0,1-.44-.43Z"/><path class="cls-4" d="M18.55,23.76a.43.43,0,0,0,.27.55,6.5,6.5,0,0,1,2.83,2,.43.43,0,0,0,.35.17h0a.43.43,0,0,0,.35-.17,6.51,6.51,0,0,1,2.83-2,.43.43,0,1,0-.29-.82A7.57,7.57,0,0,0,22,25.4a7.57,7.57,0,0,0-2.89-1.91.44.44,0,0,0-.56.27"/></g></g></svg>