<svg xmlns="http://www.w3.org/2000/svg" xmlns:xlink="http://www.w3.org/1999/xlink" viewBox="0 0 44 44"><defs><style>.cls-1,.cls-2,.cls-7{fill:none;}.cls-2{clip-path:url(#clip-path);}.cls-3{clip-path:url(#clip-path-2);}.cls-4{fill:#fff;}.cls-5{clip-path:url(#clip-path-3);}.cls-6{fill:#e94362;}.cls-7{stroke:#fff;stroke-linecap:round;}</style><clipPath id="clip-path"><line class="cls-1" x1="4.33" y1="4.15" x2="4.33" y2="40.15"/></clipPath><clipPath id="clip-path-2"><line class="cls-2" x1="40.33" y1="40.15" x2="40.33" y2="4.15"/></clipPath><clipPath id="clip-path-3"><rect class="cls-1" x="4" y="4" width="36" height="36"/></clipPath></defs><g id="Layer_1" data-name="Layer 1"><g class="cls-3"><path class="cls-4" d="M32.86,34.41a1.73,1.73,0,0,0,1.23-2.95m0,0"/></g><g class="cls-5"><path class="cls-6" d="M22,40A18,18,0,1,0,4,22,18,18,0,0,0,22,40"/><path class="cls-4" d="M18.37,24.42a6,6,0,1,1,6.05-6.05,6,6,0,0,1-6.05,6.05m15.38,6.89-6.17-6.17a1.77,1.77,0,0,0-2.09-.26l-.72-.72a8.66,8.66,0,1,0-.61.61l.72.72a1.71,1.71,0,0,0,.26,2.09l6.17,6.17a1.73,1.73,0,1,0,2.44-2.44"/></g><line class="cls-7" x1="18.41" y1="15.94" x2="18.41" y2="20.39"/><line class="cls-7" x1="20.63" y1="18.17" x2="16.18" y2="18.17"/></g></svg>