<svg xmlns="http://www.w3.org/2000/svg" xmlns:xlink="http://www.w3.org/1999/xlink" viewBox="0 0 44 44"><defs><style>.cls-1{fill:none;}.cls-2{clip-path:url(#clip-path);}.cls-3{fill:#e94362;}.cls-4{fill:#fff;}</style><clipPath id="clip-path"><rect class="cls-1" x="4" y="4" width="36" height="36"/></clipPath></defs><g id="Layer_1" data-name="Layer 1"><g class="cls-2"><path class="cls-3" d="M22,40A18,18,0,1,0,4,22,18,18,0,0,0,22,40"/><path class="cls-4" d="M10,29h2.08a.41.41,0,0,0,.39-.3l.75-2.6h1l.74,2.6a.41.41,0,0,0,.4.3h2.07a.41.41,0,0,0,.4-.53l-2.49-8.29a.41.41,0,0,0-.39-.29H12.47a.43.43,0,0,0-.4.29L9.59,28.51a.41.41,0,0,0,.06.37A.42.42,0,0,0,10,29m3.73-5.73.26.76h-.51Z"/><path class="cls-4" d="M18.27,24.07h5a2.9,2.9,0,0,0,1-5.61,2.38,2.38,0,0,0,.23-1A2.49,2.49,0,0,0,22,15H18.27a.41.41,0,0,0-.41.41v8.29a.41.41,0,0,0,.41.41m2.07-6.63h1.25a.42.42,0,0,1,.41.42.41.41,0,0,1-.41.41H20.34Zm0,3.32h2.9a.41.41,0,0,1,.42.41.42.42,0,0,1-.42.42h-2.9Z"/><path class="cls-4" d="M30.7,29a3.73,3.73,0,0,0,3.73-3.73A.42.42,0,0,0,34,24.9H32.36a.42.42,0,0,0-.42.41,1.24,1.24,0,1,1-2.48,0V23.66a1.24,1.24,0,1,1,2.48,0,.41.41,0,0,0,.42.41H34a.41.41,0,0,0,.41-.41,3.73,3.73,0,0,0-7.46,0v1.65A3.74,3.74,0,0,0,30.7,29"/></g></g></svg>