<svg xmlns="http://www.w3.org/2000/svg" xmlns:xlink="http://www.w3.org/1999/xlink" viewBox="0 0 1920 1080"><defs><style>.cls-1,.cls-75{fill:none;}.cls-2{fill:#f9c7d0;opacity:0.7;}.cls-3{clip-path:url(#clip-path);}.cls-4{clip-path:url(#clip-path-2);}.cls-5{opacity:0.3;}.cls-6{clip-path:url(#clip-path-3);}.cls-7{fill:#e94362;}.cls-8{clip-path:url(#clip-path-4);}.cls-9{fill:#29b8ce;}.cls-10{clip-path:url(#clip-path-5);}.cls-11{clip-path:url(#clip-path-6);}.cls-12{fill:#a2c617;}.cls-13{clip-path:url(#clip-path-7);}.cls-14{clip-path:url(#clip-path-8);}.cls-15{clip-path:url(#clip-path-9);}.cls-16{clip-path:url(#clip-path-10);}.cls-17{clip-path:url(#clip-path-11);}.cls-18{clip-path:url(#clip-path-12);}.cls-19{clip-path:url(#clip-path-13);}.cls-20{clip-path:url(#clip-path-14);}.cls-21{clip-path:url(#clip-path-15);}.cls-22{clip-path:url(#clip-path-16);}.cls-23{clip-path:url(#clip-path-17);}.cls-24{clip-path:url(#clip-path-18);}.cls-25{clip-path:url(#clip-path-19);}.cls-26{clip-path:url(#clip-path-20);}.cls-27{clip-path:url(#clip-path-21);}.cls-28{clip-path:url(#clip-path-22);}.cls-29{clip-path:url(#clip-path-23);}.cls-30{clip-path:url(#clip-path-24);}.cls-31{clip-path:url(#clip-path-25);}.cls-32{clip-path:url(#clip-path-26);}.cls-33{clip-path:url(#clip-path-27);}.cls-34{clip-path:url(#clip-path-28);}.cls-35{clip-path:url(#clip-path-29);}.cls-36{clip-path:url(#clip-path-30);}.cls-37{clip-path:url(#clip-path-31);}.cls-38{clip-path:url(#clip-path-32);}.cls-39{clip-path:url(#clip-path-33);}.cls-40{clip-path:url(#clip-path-34);}.cls-41{clip-path:url(#clip-path-35);}.cls-42{clip-path:url(#clip-path-36);}.cls-43{clip-path:url(#clip-path-37);}.cls-44{clip-path:url(#clip-path-38);}.cls-45{clip-path:url(#clip-path-39);}.cls-46{clip-path:url(#clip-path-40);}.cls-47{clip-path:url(#clip-path-41);}.cls-48{clip-path:url(#clip-path-42);}.cls-49{clip-path:url(#clip-path-43);}.cls-50{clip-path:url(#clip-path-44);}.cls-51{clip-path:url(#clip-path-45);}.cls-52{clip-path:url(#clip-path-46);}.cls-53{clip-path:url(#clip-path-47);}.cls-54{clip-path:url(#clip-path-48);}.cls-55{clip-path:url(#clip-path-49);}.cls-56{clip-path:url(#clip-path-50);}.cls-57{clip-path:url(#clip-path-51);}.cls-58{clip-path:url(#clip-path-52);}.cls-59{clip-path:url(#clip-path-53);}.cls-60{clip-path:url(#clip-path-54);}.cls-61{clip-path:url(#clip-path-55);}.cls-62{clip-path:url(#clip-path-56);}.cls-63{clip-path:url(#clip-path-57);}.cls-64{clip-path:url(#clip-path-58);}.cls-65{clip-path:url(#clip-path-59);}.cls-66{clip-path:url(#clip-path-60);}.cls-67{clip-path:url(#clip-path-61);}.cls-68{clip-path:url(#clip-path-62);}.cls-69{clip-path:url(#clip-path-63);}.cls-70{clip-path:url(#clip-path-64);}.cls-71{clip-path:url(#clip-path-65);}.cls-72{clip-path:url(#clip-path-66);}.cls-73{clip-path:url(#clip-path-67);}.cls-74{clip-path:url(#clip-path-68);}.cls-75{stroke:#e94362;stroke-width:1.5px;}</style><clipPath id="clip-path"><rect class="cls-1" x="-11.5" y="-80.84" width="1938.13" height="1395.84"/></clipPath><clipPath id="clip-path-2"><rect class="cls-1" x="-11.5" y="-80.84" width="1938.14" height="1395.84"/></clipPath><clipPath id="clip-path-3"><rect class="cls-1" x="-26.53" y="441.09" width="383.31" height="173.41"/></clipPath><clipPath id="clip-path-4"><rect class="cls-1" x="334.31" y="610.25" width="189.98" height="706.57"/></clipPath><clipPath id="clip-path-5"><polygon class="cls-1" points="507.89 1315 507.89 787.96 507.89 731.54 507.89 623 350.71 623 350.71 731.54 350.71 787.96 350.71 1315 507.89 1315"/></clipPath><clipPath id="clip-path-6"><rect class="cls-1" x="1674.38" y="610.25" width="189.98" height="342.57"/></clipPath><clipPath id="clip-path-7"><rect class="cls-1" x="669.33" y="441.09" width="357.49" height="173.41"/></clipPath><clipPath id="clip-path-8"><polygon class="cls-1" points="1010.41 612.67 1010.41 453.84 933.72 453.84 853.24 453.84 685.73 453.84 685.73 612.67 853.24 612.67 933.72 612.67 1010.41 612.67"/></clipPath><clipPath id="clip-path-9"><rect class="cls-1" x="1506.87" y="271.92" width="436.16" height="173.41"/></clipPath><clipPath id="clip-path-10"><polygon class="cls-1" points="1926.64 443.51 1926.64 284.68 1875 284.68 1797.83 284.68 1523.27 284.68 1523.27 443.51 1797.83 443.51 1875 443.51 1926.64 443.51"/></clipPath><clipPath id="clip-path-11"><rect class="cls-1" x="1171.86" y="441.09" width="189.97" height="511.74"/></clipPath><clipPath id="clip-path-12"><polygon class="cls-1" points="1345.43 951 1345.43 612.67 1345.43 580.32 1345.43 453.84 1188.25 453.84 1188.25 580.32 1188.25 612.67 1188.25 951 1345.43 951"/></clipPath><clipPath id="clip-path-13"><rect class="cls-1" x="501.82" y="102.76" width="692.5" height="173.41"/></clipPath><clipPath id="clip-path-14"><rect class="cls-1" x="-26.53" y="-92.23" width="215.8" height="368.4"/></clipPath><clipPath id="clip-path-15"><polygon class="cls-1" points="172.87 274.35 172.87 207.45 172.87 103.01 172.87 -79.47 -10.13 -79.47 -10.13 103.01 -10.13 207.45 -10.13 274.35 172.87 274.35"/></clipPath><clipPath id="clip-path-16"><rect class="cls-1" x="-26.53" y="271.92" width="215.8" height="173.41"/></clipPath><clipPath id="clip-path-17"><rect class="cls-1" x="-0.71" y="610.25" width="189.98" height="173.41"/></clipPath><clipPath id="clip-path-18"><rect class="cls-1" x="-26.53" y="948.58" width="215.8" height="173.41"/></clipPath><clipPath id="clip-path-19"><rect class="cls-1" x="669.33" y="271.92" width="189.98" height="173.41"/></clipPath><clipPath id="clip-path-20"><rect class="cls-1" x="685.73" y="284.68" width="157.18" height="158.83"/></clipPath><clipPath id="clip-path-21"><rect class="cls-1" x="669.33" y="779.41" width="189.98" height="173.41"/></clipPath><clipPath id="clip-path-22"><rect class="cls-1" x="1339.36" y="271.92" width="189.97" height="173.41"/></clipPath><clipPath id="clip-path-23"><rect class="cls-1" x="1339.36" y="610.25" width="189.97" height="173.41"/></clipPath><clipPath id="clip-path-24"><rect class="cls-1" x="1339.36" y="779.41" width="189.97" height="173.41"/></clipPath><clipPath id="clip-path-25"><rect class="cls-1" x="334.31" y="-66.4" width="189.98" height="173.41"/></clipPath><clipPath id="clip-path-26"><rect class="cls-1" x="334.31" y="271.92" width="189.98" height="173.41"/></clipPath><clipPath id="clip-path-27"><rect class="cls-1" x="350.71" y="284.68" width="157.18" height="158.83"/></clipPath><clipPath id="clip-path-28"><rect class="cls-1" x="334.31" y="102.76" width="189.98" height="173.41"/></clipPath><clipPath id="clip-path-29"><rect class="cls-1" x="350.71" y="115.51" width="157.18" height="158.83"/></clipPath><clipPath id="clip-path-30"><rect class="cls-1" x="1004.35" y="-66.4" width="189.97" height="173.41"/></clipPath><clipPath id="clip-path-31"><rect class="cls-1" x="1004.35" y="610.25" width="189.97" height="173.41"/></clipPath><clipPath id="clip-path-32"><rect class="cls-1" x="1020.74" y="623" width="157.18" height="158.83"/></clipPath><clipPath id="clip-path-33"><rect class="cls-1" x="1004.35" y="779.41" width="189.97" height="173.41"/></clipPath><clipPath id="clip-path-34"><rect class="cls-1" x="1020.74" y="792.17" width="157.18" height="158.83"/></clipPath><clipPath id="clip-path-35"><rect class="cls-1" x="1004.35" y="948.58" width="189.97" height="173.41"/></clipPath><clipPath id="clip-path-36"><rect class="cls-1" x="1020.74" y="961.33" width="157.18" height="158.83"/></clipPath><clipPath id="clip-path-37"><rect class="cls-1" x="1674.38" y="102.76" width="189.98" height="173.41"/></clipPath><clipPath id="clip-path-38"><rect class="cls-1" x="1674.38" y="441.09" width="268.65" height="173.41"/></clipPath><clipPath id="clip-path-39"><rect class="cls-1" x="166.8" y="271.92" width="189.98" height="173.41"/></clipPath><clipPath id="clip-path-40"><rect class="cls-1" x="166.8" y="610.25" width="189.98" height="173.41"/></clipPath><clipPath id="clip-path-41"><rect class="cls-1" x="183.2" y="623" width="157.18" height="158.83"/></clipPath><clipPath id="clip-path-42"><rect class="cls-1" x="166.8" y="779.41" width="189.98" height="173.41"/></clipPath><clipPath id="clip-path-43"><rect class="cls-1" x="183.2" y="792.17" width="157.18" height="158.83"/></clipPath><clipPath id="clip-path-44"><rect class="cls-1" x="166.8" y="948.58" width="189.98" height="173.41"/></clipPath><clipPath id="clip-path-45"><rect class="cls-1" x="836.84" y="-92.23" width="189.97" height="199.23"/></clipPath><clipPath id="clip-path-46"><rect class="cls-1" x="836.84" y="271.92" width="189.97" height="173.41"/></clipPath><clipPath id="clip-path-47"><rect class="cls-1" x="836.84" y="610.25" width="189.97" height="173.41"/></clipPath><clipPath id="clip-path-48"><rect class="cls-1" x="669.33" y="948.58" width="357.49" height="173.41"/></clipPath><clipPath id="clip-path-49"><polygon class="cls-1" points="1010.41 1120.16 1010.41 961.33 960.84 961.33 853.24 961.33 685.73 961.33 685.73 1120.16 853.24 1120.16 960.84 1120.16 1010.41 1120.16"/></clipPath><clipPath id="clip-path-50"><rect class="cls-1" x="1506.87" y="-92.23" width="189.98" height="199.23"/></clipPath><clipPath id="clip-path-51"><rect class="cls-1" x="1523.27" y="-79.47" width="157.18" height="184.66"/></clipPath><clipPath id="clip-path-52"><rect class="cls-1" x="1506.87" y="102.76" width="189.98" height="173.41"/></clipPath><clipPath id="clip-path-53"><rect class="cls-1" x="1523.27" y="115.51" width="157.18" height="158.83"/></clipPath><clipPath id="clip-path-54"><rect class="cls-1" x="1506.87" y="441.09" width="189.98" height="173.41"/></clipPath><clipPath id="clip-path-55"><rect class="cls-1" x="1523.27" y="453.84" width="157.18" height="158.83"/></clipPath><clipPath id="clip-path-56"><rect class="cls-1" x="1506.87" y="779.41" width="189.98" height="173.41"/></clipPath><clipPath id="clip-path-57"><rect class="cls-1" x="1506.87" y="948.58" width="189.98" height="173.41"/></clipPath><clipPath id="clip-path-58"><rect class="cls-1" x="1674.38" y="948.58" width="268.65" height="173.41"/></clipPath><clipPath id="clip-path-59"><rect class="cls-1" x="501.82" y="271.92" width="189.98" height="173.41"/></clipPath><clipPath id="clip-path-60"><rect class="cls-1" x="518.22" y="284.68" width="157.18" height="158.83"/></clipPath><clipPath id="clip-path-61"><rect class="cls-1" x="501.82" y="610.25" width="189.98" height="173.41"/></clipPath><clipPath id="clip-path-62"><rect class="cls-1" x="501.82" y="779.41" width="189.98" height="173.41"/></clipPath><clipPath id="clip-path-63"><rect class="cls-1" x="501.82" y="1117.74" width="189.98" height="199.08"/></clipPath><clipPath id="clip-path-64"><rect class="cls-1" x="518.22" y="1130.49" width="157.18" height="184.51"/></clipPath><clipPath id="clip-path-65"><rect class="cls-1" x="1171.86" y="-92.23" width="189.97" height="199.23"/></clipPath><clipPath id="clip-path-66"><rect class="cls-1" x="1171.86" y="271.92" width="189.97" height="173.41"/></clipPath><clipPath id="clip-path-67"><rect class="cls-1" x="1171.86" y="948.58" width="189.97" height="173.41"/></clipPath><clipPath id="clip-path-68"><rect class="cls-1" x="-27.9" y="-93.59" width="1970.93" height="1306.62"/></clipPath></defs><g id="Layer_2" data-name="Layer 2"><rect class="cls-2" x="-52.5" y="-116" width="2028" height="1431"/></g><g id="Layer_1" data-name="Layer 1"><g class="cls-3"><g class="cls-4"><g class="cls-5"><g class="cls-6"><polygon class="cls-7" points="340.38 612.67 340.38 453.84 263.07 453.84 170.7 453.84 -10.13 453.84 -10.13 612.67 170.7 612.67 263.07 612.67 340.38 612.67"/></g></g><g class="cls-5"><g class="cls-8"><polygon class="cls-9" points="507.89 1315 507.89 787.96 507.89 731.54 507.89 623 350.71 623 350.71 731.54 350.71 787.96 350.71 1315 507.89 1315"/><g class="cls-10"><path class="cls-7" d="M-10.13,194.93l439.43,1.71v88s0,79.42,79,79.42h258l-2,338.89H261.79v168.6H351.4s77.9,0,77.9,79.42c0,77.47-.43,258.83-.43,258.83h90.38s77.56.07,77.56-79.35v-89.74h502.52V783s0-80.61,78.59-80.61h87.63V533.26h258.24s78.07,0,78.07-79.42v-350s0-79.8,78.59-79.8h272V-79.47H-10.13Z"/></g></g></g><g class="cls-5"><g class="cls-11"><polygon class="cls-12" points="1847.96 951 1847.96 891.28 1847.96 846.21 1847.96 623 1690.78 623 1690.78 846.21 1690.78 891.28 1690.78 951 1847.96 951"/></g></g><g class="cls-5"><g class="cls-13"><polygon class="cls-9" points="1010.41 612.67 1010.41 453.84 933.72 453.84 853.23 453.84 685.73 453.84 685.73 612.67 853.23 612.67 933.72 612.67 1010.41 612.67"/><g class="cls-14"><path class="cls-7" d="M-10.13,194.93l439.43,1.71v88s0,79.42,79,79.42h258l-2,338.89H261.79v168.6H351.4s77.9,0,77.9,79.42c0,77.47-.43,258.83-.43,258.83h90.38s77.56.07,77.56-79.35v-89.74h502.52V783s0-80.61,78.59-80.61h87.63V533.26h258.24s78.07,0,78.07-79.42v-350s0-79.8,78.59-79.8h272V-79.47H-10.13Z"/></g></g></g><g class="cls-5"><g class="cls-15"><polygon class="cls-7" points="1926.64 443.51 1926.64 284.68 1875 284.68 1797.83 284.68 1523.27 284.68 1523.27 443.51 1797.83 443.51 1875 443.51 1926.64 443.51"/><g class="cls-16"><path class="cls-9" d="M-10.13,194.93l439.43,1.7v88s0,79.42,79,79.42h258l-2,338.89H261.79v168.6H351.4s77.9,0,77.9,79.42c0,77.47-.43,258.83-.43,258.83h90.38s77.56.08,77.56-79.34v-89.74h502.52V783s0-80.61,78.59-80.61h87.63V533.26h258.24s78.07,0,78.07-79.42v-350s0-79.8,78.59-79.8h272V-79.48H-10.13Z"/></g></g></g><g class="cls-5"><g class="cls-17"><polygon class="cls-12" points="1345.43 951 1345.43 612.67 1345.43 580.32 1345.43 453.84 1188.25 453.84 1188.25 580.32 1188.25 612.67 1188.25 951 1345.43 951"/><g class="cls-18"><path class="cls-7" d="M-10.13,194.93l439.43,1.7v88s0,79.42,79,79.42h258l-2,338.89H261.79v168.6H351.4s77.9,0,77.9,79.42c0,77.47-.43,258.83-.43,258.83h90.38s77.56.08,77.56-79.34v-89.74h502.52V783s0-80.61,78.59-80.61h87.63V533.26h258.24s78.07,0,78.07-79.42v-350s0-79.8,78.59-79.8h272V-79.48H-10.13Z"/></g></g></g><g class="cls-5"><g class="cls-19"><polygon class="cls-12" points="1177.92 274.35 1177.92 115.51 1065.42 115.51 1020.74 115.51 518.22 115.51 518.22 274.35 1020.74 274.35 1065.42 274.35 1177.92 274.35"/></g></g><g class="cls-5"><g class="cls-20"><polygon class="cls-7" points="172.87 274.35 172.87 207.45 172.87 103.01 172.87 -79.47 -10.13 -79.47 -10.13 103.01 -10.13 207.45 -10.13 274.35 172.87 274.35"/><g class="cls-21"><path class="cls-12" d="M-10.13,194.93l439.43,1.71v88s0,79.42,79,79.42h258l-2,338.89H261.79v168.6H351.4s77.9,0,77.9,79.42c0,77.47-.43,258.83-.43,258.83h90.38s77.56.07,77.56-79.35v-89.74h502.52V783s0-80.61,78.59-80.61h87.63V533.26h258.24s78.07,0,78.07-79.42v-350s0-79.8,78.59-79.8h272V-79.47H-10.13Z"/></g></g></g><g class="cls-5"><g class="cls-22"><rect class="cls-9" x="-10.13" y="284.68" width="183" height="158.83"/></g></g><g class="cls-5"><g class="cls-23"><path class="cls-12" d="M94.28,781.84c43.4,0,78.59-35.56,78.59-79.42S137.68,623,94.28,623s-78.59,35.56-78.59,79.42,35.19,79.42,78.59,79.42"/></g></g><g class="cls-5"><g class="cls-24"><rect class="cls-12" x="-10.13" y="961.33" width="183" height="158.83"/></g></g><g class="cls-5"><g class="cls-25"><rect class="cls-7" x="685.73" y="284.68" width="157.18" height="158.83"/><g class="cls-26"><path class="cls-9" d="M-10.13,194.93l439.43,1.7v88s0,79.42,79,79.42h258l-2,338.89H261.79v168.6H351.4s77.9,0,77.9,79.42c0,77.47-.43,258.83-.43,258.83h90.38s77.56.08,77.56-79.34v-89.74h502.52V783s0-80.61,78.59-80.61h87.63V533.26h258.24s78.07,0,78.07-79.42v-350s0-79.8,78.59-79.8h272V-79.48H-10.13Z"/></g></g></g><g class="cls-5"><g class="cls-27"><rect class="cls-9" x="685.73" y="792.17" width="157.18" height="158.83"/></g></g><g class="cls-5"><g class="cls-28"><path class="cls-9" d="M1434.35,443.51c43.4,0,78.59-35.56,78.59-79.42s-35.19-79.41-78.59-79.41-78.59,35.55-78.59,79.41,35.19,79.42,78.59,79.42"/></g></g><g class="cls-5"><g class="cls-29"><path class="cls-12" d="M1434.35,781.84c43.4,0,78.59-35.56,78.59-79.42S1477.75,623,1434.35,623s-78.59,35.56-78.59,79.42,35.19,79.42,78.59,79.42"/></g></g><g class="cls-5"><g class="cls-30"><rect class="cls-9" x="1355.76" y="792.17" width="157.18" height="158.83"/></g></g><g class="cls-5"><g class="cls-31"><path class="cls-7" d="M429.3,105.18c43.4,0,78.59-35.55,78.59-79.41S472.7-53.65,429.3-53.65s-78.59,35.56-78.59,79.42,35.18,79.41,78.59,79.41"/></g></g><g class="cls-5"><g class="cls-32"><rect class="cls-7" x="350.71" y="284.68" width="157.18" height="158.83"/><g class="cls-33"><path class="cls-9" d="M-10.13,194.93l439.43,1.7v88s0,79.42,79,79.42h258l-2,338.89H261.79v168.6H351.4s77.9,0,77.9,79.42c0,77.47-.43,258.83-.43,258.83h90.38s77.56.08,77.56-79.34v-89.74h502.52V783s0-80.61,78.59-80.61h87.63V533.26h258.24s78.07,0,78.07-79.42v-350s0-79.8,78.59-79.8h272V-79.48H-10.13Z"/></g></g></g><g class="cls-5"><g class="cls-34"><rect class="cls-12" x="350.71" y="115.51" width="157.18" height="158.83"/><g class="cls-35"><path class="cls-7" d="M-10.13,194.93l439.43,1.71v88s0,79.42,79,79.42h258l-2,338.89H261.79v168.6H351.4s77.9,0,77.9,79.42c0,77.47-.43,258.83-.43,258.83h90.38s77.56.07,77.56-79.35v-89.74h502.52V783s0-80.61,78.59-80.61h87.63V533.26h258.24s78.07,0,78.07-79.42v-350s0-79.8,78.59-79.8h272V-79.47H-10.13Z"/></g></g></g><g class="cls-5"><g class="cls-36"><path class="cls-9" d="M1099.33,105.18c43.41,0,78.59-35.55,78.59-79.41s-35.18-79.42-78.59-79.42-78.59,35.56-78.59,79.42,35.19,79.41,78.59,79.41"/></g></g><g class="cls-5"><g class="cls-37"><rect class="cls-7" x="1020.74" y="623" width="157.18" height="158.83"/><g class="cls-38"><path class="cls-9" d="M-10.13,194.93l439.43,1.71v88s0,79.42,79,79.42h258l-2,338.89H261.79v168.6H351.4s77.9,0,77.9,79.42c0,77.47-.43,258.83-.43,258.83h90.38s77.56.07,77.56-79.35v-89.74h502.52V783s0-80.61,78.59-80.61h87.63V533.26h258.24s78.07,0,78.07-79.42v-350s0-79.8,78.59-79.8h272V-79.47H-10.13Z"/></g></g></g><g class="cls-5"><g class="cls-39"><rect class="cls-9" x="1020.74" y="792.17" width="157.18" height="158.83"/><g class="cls-40"><path class="cls-12" d="M-10.13,194.93l439.43,1.7v88s0,79.42,79,79.42h258l-2,338.89H261.79v168.6H351.4s77.9,0,77.9,79.42c0,77.47-.43,258.83-.43,258.83h90.38s77.56.08,77.56-79.34v-89.74h502.52V783s0-80.61,78.59-80.61h87.63V533.26h258.24s78.07,0,78.07-79.42v-350s0-79.8,78.59-79.8h272V-79.48H-10.13Z"/></g></g></g><g class="cls-5"><g class="cls-41"><rect class="cls-9" x="1020.74" y="961.33" width="157.18" height="158.83"/><g class="cls-42"><path class="cls-7" d="M-10.13,194.93l439.43,1.71v88s0,79.42,79,79.42h258l-2,338.89H261.79v168.6H351.4s77.9,0,77.9,79.42c0,77.47-.43,258.83-.43,258.83h90.38s77.56.07,77.56-79.35v-89.74h502.52V783s0-80.61,78.59-80.61h87.63V533.26h258.24s78.07,0,78.07-79.42v-350s0-79.8,78.59-79.8h272V-79.47H-10.13Z"/></g></g></g><g class="cls-5"><g class="cls-43"><path class="cls-12" d="M1769.37,274.35c43.4,0,78.59-35.56,78.59-79.42s-35.19-79.42-78.59-79.42-78.59,35.56-78.59,79.42,35.19,79.42,78.59,79.42"/></g></g><g class="cls-5"><g class="cls-44"><rect class="cls-9" x="1690.78" y="453.84" width="235.86" height="158.83"/></g></g><g class="cls-5"><g class="cls-45"><path class="cls-9" d="M261.79,443.51c43.4,0,78.59-35.56,78.59-79.42s-35.19-79.41-78.59-79.41-78.59,35.55-78.59,79.41,35.19,79.42,78.59,79.42"/></g></g><g class="cls-5"><g class="cls-46"><rect class="cls-7" x="183.2" y="623" width="157.18" height="158.83"/><g class="cls-47"><path class="cls-9" d="M-10.13,194.93l439.43,1.71v88s0,79.42,79,79.42h258l-2,338.89H261.79v168.6H351.4s77.9,0,77.9,79.42c0,77.47-.43,258.83-.43,258.83h90.38s77.56.07,77.56-79.35v-89.74h502.52V783s0-80.61,78.59-80.61h87.63V533.26h258.24s78.07,0,78.07-79.42v-350s0-79.8,78.59-79.8h272V-79.47H-10.13Z"/></g></g></g><g class="cls-5"><g class="cls-48"><rect class="cls-9" x="183.2" y="792.17" width="157.18" height="158.83"/><g class="cls-49"><path class="cls-12" d="M-10.13,194.93l439.43,1.7v88s0,79.42,79,79.42h258l-2,338.89H261.79v168.6H351.4s77.9,0,77.9,79.42c0,77.47-.43,258.83-.43,258.83h90.38s77.56.08,77.56-79.34v-89.74h502.52V783s0-80.61,78.59-80.61h87.63V533.26h258.24s78.07,0,78.07-79.42v-350s0-79.8,78.59-79.8h272V-79.48H-10.13Z"/></g></g></g><g class="cls-5"><g class="cls-50"><path class="cls-9" d="M261.79,1120.16c43.4,0,78.59-35.55,78.59-79.41s-35.19-79.42-78.59-79.42-78.59,35.56-78.59,79.42,35.19,79.41,78.59,79.41"/></g></g><g class="cls-5"><g class="cls-51"><rect class="cls-9" x="853.24" y="-79.47" width="157.18" height="184.66"/></g></g><g class="cls-5"><g class="cls-52"><path class="cls-12" d="M931.82,443.51c43.41,0,78.59-35.56,78.59-79.42s-35.18-79.41-78.59-79.41-78.59,35.55-78.59,79.41,35.19,79.42,78.59,79.42"/></g></g><g class="cls-5"><g class="cls-53"><path class="cls-9" d="M931.82,781.84c43.41,0,78.59-35.56,78.59-79.42S975.23,623,931.82,623s-78.59,35.56-78.59,79.42,35.19,79.42,78.59,79.42"/></g></g><g class="cls-5"><g class="cls-54"><polygon class="cls-9" points="1010.41 1120.16 1010.41 961.33 960.83 961.33 853.23 961.33 685.73 961.33 685.73 1120.16 853.23 1120.16 960.83 1120.16 1010.41 1120.16"/><g class="cls-55"><path class="cls-12" d="M-10.13,194.93l439.43,1.71v88s0,79.42,79,79.42h258l-2,338.89H261.79v168.6H351.4s77.9,0,77.9,79.42c0,77.47-.43,258.83-.43,258.83h90.38s77.56.07,77.56-79.35v-89.74h502.52V783s0-80.61,78.59-80.61h87.63V533.26h258.24s78.07,0,78.07-79.42v-350s0-79.8,78.59-79.8h272V-79.47H-10.13Z"/></g></g></g><g class="cls-5"><g class="cls-56"><rect class="cls-9" x="1523.27" y="-79.47" width="157.18" height="184.66"/><g class="cls-57"><path class="cls-12" d="M-10.13,194.93l439.43,1.71v88s0,79.42,79,79.42h258l-2,338.89H261.79v168.6H351.4s77.9,0,77.9,79.42c0,77.47-.43,258.83-.43,258.83h90.38s77.56.07,77.56-79.35v-89.74h502.52V783s0-80.61,78.59-80.61h87.63V533.26h258.24s78.07,0,78.07-79.42v-350s0-79.8,78.59-79.8h272V-79.47H-10.13Z"/></g></g></g><g class="cls-5"><g class="cls-58"><rect class="cls-12" x="1523.27" y="115.51" width="157.18" height="158.83"/><g class="cls-59"><path class="cls-7" d="M-10.13,194.93l439.43,1.71v88s0,79.42,79,79.42h258l-2,338.89H261.79v168.6H351.4s77.9,0,77.9,79.42c0,77.47-.43,258.83-.43,258.83h90.38s77.56.07,77.56-79.35v-89.74h502.52V783s0-80.61,78.59-80.61h87.63V533.26h258.24s78.07,0,78.07-79.42v-350s0-79.8,78.59-79.8h272V-79.47H-10.13Z"/></g></g></g><g class="cls-5"><g class="cls-60"><rect class="cls-7" x="1523.27" y="453.84" width="157.18" height="158.83"/><g class="cls-61"><path class="cls-12" d="M-10.13,194.93l439.43,1.71v88s0,79.42,79,79.42h258l-2,338.89H261.79v168.6H351.4s77.9,0,77.9,79.42c0,77.47-.43,258.83-.43,258.83h90.38s77.56.07,77.56-79.35v-89.74h502.52V783s0-80.61,78.59-80.61h87.63V533.26h258.24s78.07,0,78.07-79.42v-350s0-79.8,78.59-79.8h272V-79.47H-10.13Z"/></g></g></g><g class="cls-5"><g class="cls-62"><path class="cls-9" d="M1601.86,951c43.4,0,78.59-35.55,78.59-79.42s-35.19-79.41-78.59-79.41-78.59,35.55-78.59,79.41S1558.46,951,1601.86,951"/></g></g><g class="cls-5"><g class="cls-63"><rect class="cls-7" x="1523.27" y="961.33" width="157.18" height="158.83"/></g></g><g class="cls-5"><g class="cls-64"><rect class="cls-7" x="1690.78" y="961.33" width="235.86" height="158.83"/></g></g><g class="cls-5"><g class="cls-65"><rect class="cls-9" x="518.22" y="284.68" width="157.18" height="158.83"/><g class="cls-66"><path class="cls-12" d="M-10.13,194.93l439.43,1.7v88s0,79.42,79,79.42h258l-2,338.89H261.79v168.6H351.4s77.9,0,77.9,79.42c0,77.47-.43,258.83-.43,258.83h90.38s77.56.08,77.56-79.34v-89.74h502.52V783s0-80.61,78.59-80.61h87.63V533.26h258.24s78.07,0,78.07-79.42v-350s0-79.8,78.59-79.8h272V-79.48H-10.13Z"/></g></g></g><g class="cls-5"><g class="cls-67"><rect class="cls-9" x="518.22" y="623" width="157.18" height="158.83"/></g></g><g class="cls-5"><g class="cls-68"><path class="cls-12" d="M596.81,951c43.4,0,78.59-35.55,78.59-79.42s-35.19-79.41-78.59-79.41-78.59,35.55-78.59,79.41S553.4,951,596.81,951"/></g></g><g class="cls-5"><g class="cls-69"><g class="cls-70"><path class="cls-12" d="M-10.13,194.93l439.43,1.71v88s0,79.42,79,79.42h258l-2,338.89H261.79v168.6H351.4s77.9,0,77.9,79.42c0,77.47-.43,258.83-.43,258.83h90.38s77.56.07,77.56-79.35v-89.74h502.52V783s0-80.61,78.59-80.61h87.63V533.26h258.24s78.07,0,78.07-79.42v-350s0-79.8,78.59-79.8h272V-79.47H-10.13Z"/></g></g></g><g class="cls-5"><g class="cls-71"><rect class="cls-7" x="1188.25" y="-79.47" width="157.18" height="184.66"/></g></g><g class="cls-5"><g class="cls-72"><rect class="cls-9" x="1188.25" y="284.68" width="157.18" height="158.83"/></g></g><g class="cls-5"><g class="cls-73"><path class="cls-7" d="M1266.84,1120.16c43.41,0,78.59-35.55,78.59-79.41s-35.18-79.42-78.59-79.42-78.59,35.56-78.59,79.42,35.19,79.41,78.59,79.41"/></g></g><g class="cls-5"><g class="cls-74"><path class="cls-75" d="M1926.64-79.47H-10.13v274.4l439.43,1.71v88s0,79.41,79,79.41h258l-2,338.9H261.79V871.58H351.4s77.9,0,77.9,79.43c0,77.47-.43,258.83-.43,258.83h90.38s77.56.08,77.56-79.35v-89.74h502.52V783s0-80.61,78.59-80.61h87.63V533.26h258.24s78.07,0,78.07-79.42v-350s0-79.8,78.59-79.8h246.19"/></g></g></g></g></g></svg>