<svg xmlns="http://www.w3.org/2000/svg" xmlns:xlink="http://www.w3.org/1999/xlink" viewBox="0 0 44 44"><defs><style>.cls-1{fill:none;}.cls-2{clip-path:url(#clip-path);}.cls-3{fill:#e94362;}.cls-4{fill:#fff;}</style><clipPath id="clip-path"><rect class="cls-1" x="2.67" y="2.69" width="39.69" height="39.69"/></clipPath></defs><g id="Layer_1" data-name="Layer 1"><g class="cls-2"><path class="cls-3" d="M22.51,2.69A19.85,19.85,0,1,1,2.67,22.53,19.85,19.85,0,0,1,22.51,2.69"/><path class="cls-4" d="M29.22,12.64l.27-.16a4.32,4.32,0,0,1,4.29-.16A3,3,0,0,1,35,13.43a2.39,2.39,0,0,1,.16,2.42l-.15.31a2.56,2.56,0,0,0,.34.1,3.37,3.37,0,0,1,1.58.89,2.25,2.25,0,0,1-.05,3.28,3.28,3.28,0,0,1-1.57.83l-.39.09a1.17,1.17,0,0,0,.08.21A2.64,2.64,0,0,1,35,23.9a3.69,3.69,0,0,1-.72,1,5,5,0,0,1-5.43,1.23.46.46,0,0,0-.49.08A2.67,2.67,0,0,1,26,26.8a2,2,0,0,1-1.59-1.45,1.27,1.27,0,0,1,0-.88c.34-.9.65-1.81,1-2.7a2,2,0,0,0-2.06-2.83c-.84.08-1.69.13-2.53.21-.36,0-.72.11-1.09.12a9.75,9.75,0,0,1-1.08,0,1.29,1.29,0,0,1-.38-.12c-.83-.35-.85-1-.19-1.47.05,0,.08-.07.15-.12s-.1-.17-.16-.25a2.05,2.05,0,0,1,.35-2.82,3.24,3.24,0,0,1,3.19-.59L22,14c0-.11,0-.19,0-.26a2.57,2.57,0,0,1,1-2.06,4.12,4.12,0,0,1,3.36-.92,3.69,3.69,0,0,1,2.35,1.19c.19.21.34.46.52.7"/><path class="cls-4" d="M10.27,34.31c0-.71.16-1.41.24-2.11s.19-1.42.29-2.15l-.42,0a1.9,1.9,0,0,1-1.79-1.43c-.18-.67-.28-1.37-.42-2.06-.24-1.19-.47-2.37-.73-3.56a1.88,1.88,0,0,1,1.74-2.35c1.55-.12,3.09-.25,4.63-.39L22,19.46a9.93,9.93,0,0,1,1.44-.08A1.82,1.82,0,0,1,25,21.89l-2.08,5.22c-.2.51-.44,1-.6,1.53A2.06,2.06,0,0,1,20,30.22l-4.57,0c-.57,0-1.15,0-1.72,0a.63.63,0,0,0-.64.31c-.79,1.18-1.6,2.35-2.4,3.52l-.31.38-.12,0"/><path class="cls-4" d="M30.6,29.06c-.3,0-.59-.08-.88-.15a1.34,1.34,0,0,1-.39-.16.62.62,0,0,1-.14-1.05,1.54,1.54,0,0,1,.43-.33A4,4,0,0,1,32.41,27a1.62,1.62,0,0,1,.62.3.53.53,0,0,1,.11.79,2.24,2.24,0,0,1-.63.51,4.36,4.36,0,0,1-1.91.48"/><path class="cls-4" d="M31.72,30.69a5,5,0,0,1-.67-.15.42.42,0,0,1-.12-.77,2.13,2.13,0,0,1,2-.23.42.42,0,0,1,0,.76,2.29,2.29,0,0,1-1.26.39"/></g></g></svg>