<svg xmlns="http://www.w3.org/2000/svg" xmlns:xlink="http://www.w3.org/1999/xlink" viewBox="0 0 50 50"><defs><style>.cls-1{fill:none;}.cls-2{clip-path:url(#clip-path);}.cls-3{fill:#e94362;}.cls-4{fill:#1d1d1b;}.cls-5{fill:#fff;}.cls-6{fill:#f5acaf;}.cls-7{opacity:0.4;}.cls-8{clip-path:url(#clip-path-3);}.cls-9{clip-path:url(#clip-path-4);}</style><clipPath id="clip-path"><rect class="cls-1" x="1.86" y="1.86" width="46.28" height="46.28"/></clipPath><clipPath id="clip-path-3"><rect class="cls-1" x="2.95" y="19.92" width="24.22" height="10.29"/></clipPath><clipPath id="clip-path-4"><rect class="cls-1" x="22.84" y="19.92" width="24.22" height="10.29"/></clipPath></defs><g id="Layer_1" data-name="Layer 1"><g class="cls-2"><g class="cls-2"><path class="cls-3" d="M25,48.14A23.14,23.14,0,1,0,1.86,25,23.14,23.14,0,0,0,25,48.14"/><path class="cls-4" d="M19,21.94A3.93,3.93,0,1,1,15.05,18,3.93,3.93,0,0,1,19,21.94"/><path class="cls-5" d="M15.05,20.63a1.32,1.32,0,1,1-1.32-1.32,1.32,1.32,0,0,1,1.32,1.32"/><path class="cls-5" d="M17.09,23.59a.39.39,0,1,1-.39-.39.39.39,0,0,1,.39.39"/><path class="cls-4" d="M38.87,21.94A3.93,3.93,0,1,1,35,18a3.92,3.92,0,0,1,3.92,3.93"/><path class="cls-5" d="M34.94,20.63a1.32,1.32,0,1,1-1.32-1.32,1.32,1.32,0,0,1,1.32,1.32"/><path class="cls-5" d="M37,23.59a.39.39,0,1,1-.39-.39.38.38,0,0,1,.39.39"/><path class="cls-4" d="M21.07,28.06a3.93,3.93,0,1,0,7.86,0Z"/><path class="cls-6" d="M27.59,31a3.91,3.91,0,0,0-5.18,0,3.91,3.91,0,0,0,5.18,0"/><g class="cls-7"><g class="cls-8"><path class="cls-5" d="M18.16,28.06c0,.63-1.39,1.15-3.11,1.15S12,28.69,12,28.06s1.39-1.14,3.1-1.14,3.11.51,3.11,1.14"/></g></g><g class="cls-7"><g class="cls-9"><path class="cls-5" d="M38.05,28.06c0,.63-1.39,1.15-3.1,1.15s-3.11-.52-3.11-1.15,1.39-1.14,3.11-1.14,3.1.51,3.1,1.14"/></g></g></g></g></g></svg>