<svg xmlns="http://www.w3.org/2000/svg" xmlns:xlink="http://www.w3.org/1999/xlink" viewBox="0 0 1920 1080"><defs><style>.cls-1,.cls-71{fill:none;}.cls-2{clip-path:url(#clip-path);}.cls-3{opacity:0.3;}.cls-4{clip-path:url(#clip-path-3);}.cls-5{fill:#b43e97;}.cls-6{clip-path:url(#clip-path-4);}.cls-7{fill:#a6ce39;}.cls-8{clip-path:url(#clip-path-5);}.cls-9{clip-path:url(#clip-path-6);}.cls-10{fill:#f99d1c;}.cls-11{clip-path:url(#clip-path-7);}.cls-12{clip-path:url(#clip-path-8);}.cls-13{clip-path:url(#clip-path-9);}.cls-14{clip-path:url(#clip-path-10);}.cls-15{clip-path:url(#clip-path-11);}.cls-16{clip-path:url(#clip-path-12);}.cls-17{clip-path:url(#clip-path-13);}.cls-18{clip-path:url(#clip-path-14);}.cls-19{clip-path:url(#clip-path-15);}.cls-20{clip-path:url(#clip-path-16);}.cls-21{clip-path:url(#clip-path-17);}.cls-22{clip-path:url(#clip-path-18);}.cls-23{clip-path:url(#clip-path-19);}.cls-24{clip-path:url(#clip-path-20);}.cls-25{clip-path:url(#clip-path-21);}.cls-26{clip-path:url(#clip-path-22);}.cls-27{clip-path:url(#clip-path-23);}.cls-28{clip-path:url(#clip-path-24);}.cls-29{clip-path:url(#clip-path-25);}.cls-30{clip-path:url(#clip-path-26);}.cls-31{clip-path:url(#clip-path-27);}.cls-32{clip-path:url(#clip-path-28);}.cls-33{clip-path:url(#clip-path-29);}.cls-34{clip-path:url(#clip-path-30);}.cls-35{clip-path:url(#clip-path-31);}.cls-36{clip-path:url(#clip-path-32);}.cls-37{clip-path:url(#clip-path-33);}.cls-38{clip-path:url(#clip-path-34);}.cls-39{clip-path:url(#clip-path-35);}.cls-40{clip-path:url(#clip-path-36);}.cls-41{clip-path:url(#clip-path-37);}.cls-42{clip-path:url(#clip-path-38);}.cls-43{clip-path:url(#clip-path-39);}.cls-44{clip-path:url(#clip-path-40);}.cls-45{clip-path:url(#clip-path-41);}.cls-46{clip-path:url(#clip-path-42);}.cls-47{clip-path:url(#clip-path-43);}.cls-48{clip-path:url(#clip-path-44);}.cls-49{clip-path:url(#clip-path-45);}.cls-50{clip-path:url(#clip-path-46);}.cls-51{clip-path:url(#clip-path-47);}.cls-52{clip-path:url(#clip-path-48);}.cls-53{clip-path:url(#clip-path-49);}.cls-54{clip-path:url(#clip-path-50);}.cls-55{clip-path:url(#clip-path-51);}.cls-56{clip-path:url(#clip-path-52);}.cls-57{clip-path:url(#clip-path-53);}.cls-58{clip-path:url(#clip-path-54);}.cls-59{clip-path:url(#clip-path-55);}.cls-60{clip-path:url(#clip-path-56);}.cls-61{clip-path:url(#clip-path-57);}.cls-62{clip-path:url(#clip-path-58);}.cls-63{clip-path:url(#clip-path-59);}.cls-64{clip-path:url(#clip-path-60);}.cls-65{clip-path:url(#clip-path-61);}.cls-66{clip-path:url(#clip-path-62);}.cls-67{clip-path:url(#clip-path-63);}.cls-68{clip-path:url(#clip-path-64);}.cls-69{clip-path:url(#clip-path-65);}.cls-70{clip-path:url(#clip-path-66);}.cls-71{stroke:#b43e97;stroke-width:1.2px;}</style><clipPath id="clip-path"><rect class="cls-1" x="-37.6" y="-125.57" width="2006.1" height="1444.79"/></clipPath><clipPath id="clip-path-3"><rect class="cls-1" x="-57.4" y="599.02" width="405.24" height="183.26"/></clipPath><clipPath id="clip-path-4"><rect class="cls-1" x="316.09" y="-127.93" width="205.12" height="735.12"/></clipPath><clipPath id="clip-path-5"><polygon class="cls-1" points="500 -125.57 500 419.95 500 478.35 500 590.69 337.31 590.69 337.31 478.35 337.31 419.95 337.31 -125.57 500 -125.57"/></clipPath><clipPath id="clip-path-6"><rect class="cls-1" x="1703.16" y="248.83" width="205.12" height="358.36"/></clipPath><clipPath id="clip-path-7"><rect class="cls-1" x="662.86" y="599.02" width="378.5" height="183.26"/></clipPath><clipPath id="clip-path-8"><polygon class="cls-1" points="1020.15 601.38 1020.15 765.79 940.76 765.79 857.46 765.79 684.08 765.79 684.08 601.38 857.46 601.38 940.76 601.38 1020.15 601.38"/></clipPath><clipPath id="clip-path-9"><rect class="cls-1" x="1529.77" y="774.12" width="459.94" height="183.26"/></clipPath><clipPath id="clip-path-10"><polygon class="cls-1" points="1968.5 776.48 1968.5 940.88 1915.05 940.88 1835.17 940.88 1550.99 940.88 1550.99 776.48 1835.17 776.48 1915.05 776.48 1968.5 776.48"/></clipPath><clipPath id="clip-path-11"><rect class="cls-1" x="1183.01" y="248.83" width="205.12" height="533.45"/></clipPath><clipPath id="clip-path-12"><polygon class="cls-1" points="1366.91 251.19 1366.91 601.38 1366.91 634.87 1366.91 765.79 1204.22 765.79 1204.22 634.87 1204.22 601.38 1204.22 251.19 1366.91 251.19"/></clipPath><clipPath id="clip-path-13"><rect class="cls-1" x="489.48" y="949.21" width="725.27" height="183.26"/></clipPath><clipPath id="clip-path-14"><rect class="cls-1" x="-57.4" y="949.21" width="231.85" height="385.09"/></clipPath><clipPath id="clip-path-15"><polygon class="cls-1" points="153.24 951.57 153.24 1020.82 153.24 1128.92 153.24 1317.8 -36.19 1317.8 -36.19 1128.92 -36.19 1020.82 -36.19 951.57 153.24 951.57"/></clipPath><clipPath id="clip-path-16"><rect class="cls-1" x="1009.62" y="-127.93" width="725.27" height="209.83"/></clipPath><clipPath id="clip-path-17"><rect class="cls-1" x="-57.4" y="774.12" width="231.85" height="183.26"/></clipPath><clipPath id="clip-path-18"><rect class="cls-1" x="-30.67" y="423.93" width="205.12" height="183.26"/></clipPath><clipPath id="clip-path-19"><rect class="cls-1" x="-57.4" y="73.74" width="231.85" height="183.26"/></clipPath><clipPath id="clip-path-20"><rect class="cls-1" x="662.86" y="774.12" width="205.12" height="183.26"/></clipPath><clipPath id="clip-path-21"><rect class="cls-1" x="684.08" y="776.48" width="162.69" height="164.4"/></clipPath><clipPath id="clip-path-22"><rect class="cls-1" x="662.86" y="248.83" width="205.12" height="183.26"/></clipPath><clipPath id="clip-path-23"><rect class="cls-1" x="1356.39" y="774.12" width="205.12" height="183.26"/></clipPath><clipPath id="clip-path-24"><rect class="cls-1" x="1356.39" y="423.93" width="205.12" height="183.26"/></clipPath><clipPath id="clip-path-25"><rect class="cls-1" x="1356.39" y="248.83" width="205.12" height="183.26"/></clipPath><clipPath id="clip-path-26"><rect class="cls-1" x="316.09" y="774.12" width="205.12" height="183.26"/></clipPath><clipPath id="clip-path-27"><rect class="cls-1" x="337.31" y="776.48" width="162.69" height="164.4"/></clipPath><clipPath id="clip-path-28"><rect class="cls-1" x="316.09" y="949.21" width="205.12" height="183.26"/></clipPath><clipPath id="clip-path-29"><rect class="cls-1" x="337.31" y="951.57" width="162.69" height="164.4"/></clipPath><clipPath id="clip-path-30"><rect class="cls-1" x="1009.62" y="423.93" width="205.12" height="183.26"/></clipPath><clipPath id="clip-path-31"><rect class="cls-1" x="1030.84" y="426.29" width="162.69" height="164.4"/></clipPath><clipPath id="clip-path-32"><rect class="cls-1" x="1009.62" y="248.83" width="205.12" height="183.26"/></clipPath><clipPath id="clip-path-33"><rect class="cls-1" x="1030.84" y="251.19" width="162.69" height="164.4"/></clipPath><clipPath id="clip-path-34"><rect class="cls-1" x="1009.62" y="73.74" width="205.12" height="183.26"/></clipPath><clipPath id="clip-path-35"><rect class="cls-1" x="1030.84" y="76.09" width="162.69" height="164.4"/></clipPath><clipPath id="clip-path-36"><rect class="cls-1" x="1703.16" y="949.21" width="205.12" height="183.26"/></clipPath><clipPath id="clip-path-37"><rect class="cls-1" x="1703.16" y="599.02" width="286.56" height="183.26"/></clipPath><clipPath id="clip-path-38"><rect class="cls-1" x="142.71" y="774.12" width="205.12" height="183.26"/></clipPath><clipPath id="clip-path-39"><rect class="cls-1" x="142.71" y="423.93" width="205.12" height="183.26"/></clipPath><clipPath id="clip-path-40"><rect class="cls-1" x="163.93" y="426.29" width="162.69" height="164.4"/></clipPath><clipPath id="clip-path-41"><rect class="cls-1" x="142.71" y="248.83" width="205.12" height="183.26"/></clipPath><clipPath id="clip-path-42"><rect class="cls-1" x="163.93" y="251.19" width="162.69" height="164.4"/></clipPath><clipPath id="clip-path-43"><rect class="cls-1" x="142.71" y="73.74" width="205.12" height="183.26"/></clipPath><clipPath id="clip-path-44"><rect class="cls-1" x="836.24" y="774.12" width="205.12" height="183.26"/></clipPath><clipPath id="clip-path-45"><rect class="cls-1" x="836.24" y="423.93" width="205.12" height="183.26"/></clipPath><clipPath id="clip-path-46"><rect class="cls-1" x="662.86" y="73.74" width="378.5" height="183.26"/></clipPath><clipPath id="clip-path-47"><polygon class="cls-1" points="1020.15 76.1 1020.15 240.5 968.83 240.5 857.46 240.5 684.08 240.5 684.08 76.1 857.46 76.1 968.83 76.1 1020.15 76.1"/></clipPath><clipPath id="clip-path-48"><rect class="cls-1" x="836.24" y="-101.36" width="205.12" height="183.26"/></clipPath><clipPath id="clip-path-49"><rect class="cls-1" x="1529.77" y="1124.31" width="205.12" height="209.99"/></clipPath><clipPath id="clip-path-50"><rect class="cls-1" x="1550.99" y="1126.67" width="162.69" height="191.13"/></clipPath><clipPath id="clip-path-51"><rect class="cls-1" x="1529.77" y="949.21" width="205.12" height="183.26"/></clipPath><clipPath id="clip-path-52"><rect class="cls-1" x="1550.99" y="951.57" width="162.69" height="164.4"/></clipPath><clipPath id="clip-path-53"><rect class="cls-1" x="1529.77" y="599.02" width="205.12" height="183.26"/></clipPath><clipPath id="clip-path-54"><rect class="cls-1" x="1550.99" y="601.38" width="162.69" height="164.4"/></clipPath><clipPath id="clip-path-55"><rect class="cls-1" x="1529.77" y="248.83" width="205.12" height="183.26"/></clipPath><clipPath id="clip-path-56"><rect class="cls-1" x="1529.77" y="73.74" width="205.12" height="183.26"/></clipPath><clipPath id="clip-path-57"><rect class="cls-1" x="1703.16" y="73.74" width="286.56" height="183.26"/></clipPath><clipPath id="clip-path-58"><rect class="cls-1" x="489.48" y="774.12" width="205.12" height="183.26"/></clipPath><clipPath id="clip-path-59"><rect class="cls-1" x="510.69" y="776.48" width="162.69" height="164.4"/></clipPath><clipPath id="clip-path-60"><rect class="cls-1" x="489.48" y="423.93" width="205.12" height="183.26"/></clipPath><clipPath id="clip-path-61"><rect class="cls-1" x="489.48" y="248.83" width="205.12" height="183.26"/></clipPath><clipPath id="clip-path-62"><rect class="cls-1" x="489.48" y="-127.93" width="205.12" height="209.83"/></clipPath><clipPath id="clip-path-63"><rect class="cls-1" x="510.69" y="-125.57" width="162.69" height="190.97"/></clipPath><clipPath id="clip-path-64"><rect class="cls-1" x="1183.01" y="774.12" width="205.12" height="183.26"/></clipPath><clipPath id="clip-path-65"><rect class="cls-1" x="1183.01" y="73.74" width="205.12" height="183.26"/></clipPath><clipPath id="clip-path-66"><rect class="cls-1" x="-58.82" y="-20.49" width="2048.53" height="1356.21"/></clipPath></defs><g id="Layer_1" data-name="Layer 1"><g class="cls-2"><g class="cls-2"><g class="cls-3"><g class="cls-4"><polygon class="cls-5" points="326.62 601.38 326.62 765.79 246.59 765.79 150.99 765.79 -36.19 765.79 -36.19 601.38 150.99 601.38 246.59 601.38 326.62 601.38"/></g></g><g class="cls-3"><g class="cls-6"><polygon class="cls-7" points="500 -125.57 500 419.95 500 478.35 500 590.69 337.31 590.69 337.31 478.35 337.31 419.95 337.31 -125.57 500 -125.57"/><g class="cls-8"><path class="cls-5" d="M-36.18,1033.77,418.66,1032V940.88s0-82.2,81.79-82.2h267l-2.05-350.77H245.27V333.39H338s80.64,0,80.64-82.2c0-80.19-.45-267.91-.45-267.91h93.55S592-16.8,592,65.4v92.9h520.15V425.05s0,83.44,81.34,83.44h90.7V683.58h267.3s80.8,0,80.8,82.2V1128s0,82.6,81.35,82.6h281.55V1317.8H-36.18Z"/></g></g></g><g class="cls-3"><g class="cls-9"><polygon class="cls-10" points="1887.06 251.19 1887.06 313 1887.06 359.65 1887.06 590.69 1724.37 590.69 1724.37 359.65 1724.37 313 1724.37 251.19 1887.06 251.19"/></g></g><g class="cls-3"><g class="cls-11"><polygon class="cls-7" points="1020.15 601.38 1020.15 765.79 940.76 765.79 857.46 765.79 684.07 765.79 684.07 601.38 857.46 601.38 940.76 601.38 1020.15 601.38"/><g class="cls-12"><path class="cls-5" d="M-36.18,1033.78,418.66,1032V940.89s0-82.21,81.79-82.21h267l-2.05-350.77H245.27V333.39H338s80.64,0,80.64-82.2c0-80.18-.45-267.91-.45-267.91h93.55S592-16.8,592,65.41V158.3h520.15V425.05s0,83.44,81.34,83.44h90.7v175.1h267.3s80.8,0,80.8,82.2V1128s0,82.59,81.35,82.59h281.55V1317.8H-36.18Z"/></g></g></g><g class="cls-3"><g class="cls-13"><polygon class="cls-5" points="1968.5 776.48 1968.5 940.88 1915.05 940.88 1835.17 940.88 1550.99 940.88 1550.99 776.48 1835.17 776.48 1915.05 776.48 1968.5 776.48"/><g class="cls-14"><path class="cls-7" d="M-36.18,1033.77,418.66,1032V940.88s0-82.2,81.79-82.2h267l-2.05-350.77H245.27V333.39H338s80.64,0,80.64-82.2c0-80.19-.45-267.91-.45-267.91h93.55S592-16.8,592,65.4v92.9h520.15V425.05s0,83.44,81.34,83.44h90.7V683.58h267.3s80.8,0,80.8,82.2V1128s0,82.6,81.35,82.6h281.55V1317.8H-36.18Z"/></g></g></g><g class="cls-3"><g class="cls-15"><polygon class="cls-10" points="1366.91 251.19 1366.91 601.38 1366.91 634.87 1366.91 765.79 1204.22 765.79 1204.22 634.87 1204.22 601.38 1204.22 251.19 1366.91 251.19"/><g class="cls-16"><path class="cls-5" d="M-36.18,1033.77,418.66,1032V940.88s0-82.2,81.79-82.2h267l-2.05-350.77H245.27V333.39H338s80.64,0,80.64-82.2c0-80.19-.45-267.91-.45-267.91h93.55S592-16.8,592,65.4v92.9h520.15V425.05s0,83.44,81.34,83.44h90.7V683.58h267.3s80.8,0,80.8,82.2V1128s0,82.6,81.35,82.6h281.55V1317.8H-36.18Z"/></g></g></g><g class="cls-3"><g class="cls-17"><polygon class="cls-10" points="1193.53 951.57 1193.53 1115.98 1077.08 1115.98 1030.84 1115.98 510.69 1115.98 510.69 951.57 1030.84 951.57 1077.08 951.57 1193.53 951.57"/></g></g><g class="cls-3"><g class="cls-18"><polygon class="cls-5" points="153.24 951.57 153.24 1020.82 153.24 1128.92 153.24 1317.8 -36.19 1317.8 -36.19 1128.92 -36.19 1020.82 -36.19 951.57 153.24 951.57"/><g class="cls-19"><path class="cls-10" d="M-36.18,1033.78,418.66,1032V940.89s0-82.21,81.79-82.21h267l-2.05-350.77H245.27V333.39H338s80.64,0,80.64-82.2c0-80.18-.45-267.91-.45-267.91h93.55S592-16.8,592,65.41V158.3h520.15V425.05s0,83.44,81.34,83.44h90.7v175.1h267.3s80.8,0,80.8,82.2V1128s0,82.59,81.35,82.59h281.55V1317.8H-36.18Z"/></g></g></g><g class="cls-3"><g class="cls-20"><polygon class="cls-10" points="1713.68 -125.57 1713.68 65.4 1582.26 65.4 1550.99 65.4 1030.84 65.4 1030.84 -125.57 1550.99 -125.57 1582.26 -125.57 1713.68 -125.57"/></g></g><g class="cls-3"><g class="cls-21"><rect class="cls-7" x="-36.18" y="776.48" width="189.42" height="164.4"/></g></g><g class="cls-3"><g class="cls-22"><path class="cls-10" d="M71.89,426.29c44.93,0,81.35,36.8,81.35,82.2s-36.42,82.2-81.35,82.2-81.35-36.8-81.35-82.2,36.42-82.2,81.35-82.2"/></g></g><g class="cls-3"><g class="cls-23"><rect class="cls-10" x="-36.18" y="76.09" width="189.42" height="164.4"/></g></g><g class="cls-3"><g class="cls-24"><rect class="cls-5" x="684.08" y="776.48" width="162.69" height="164.4"/><g class="cls-25"><path class="cls-7" d="M-36.18,1033.77,418.66,1032V940.88s0-82.2,81.79-82.2h267l-2.05-350.77H245.27V333.39H338s80.64,0,80.64-82.2c0-80.19-.45-267.91-.45-267.91h93.55S592-16.8,592,65.4v92.9h520.15V425.05s0,83.44,81.34,83.44h90.7V683.58h267.3s80.8,0,80.8,82.2V1128s0,82.6,81.35,82.6h281.55V1317.8H-36.18Z"/></g></g></g><g class="cls-3"><g class="cls-26"><rect class="cls-7" x="684.08" y="251.19" width="162.69" height="164.4"/></g></g><g class="cls-3"><g class="cls-27"><path class="cls-7" d="M1459,776.48c44.93,0,81.35,36.8,81.35,82.2s-36.42,82.2-81.35,82.2-81.34-36.8-81.34-82.2,36.41-82.2,81.34-82.2"/></g></g><g class="cls-3"><g class="cls-28"><path class="cls-10" d="M1459,426.29c44.93,0,81.35,36.8,81.35,82.2s-36.42,82.2-81.35,82.2-81.34-36.8-81.34-82.2,36.41-82.2,81.34-82.2"/></g></g><g class="cls-3"><g class="cls-29"><rect class="cls-7" x="1377.61" y="251.19" width="162.69" height="164.4"/></g></g><g class="cls-3"><g class="cls-30"><rect class="cls-5" x="337.31" y="776.48" width="162.69" height="164.4"/><g class="cls-31"><path class="cls-7" d="M-36.18,1033.77,418.66,1032V940.88s0-82.2,81.79-82.2h267l-2.05-350.77H245.27V333.39H338s80.64,0,80.64-82.2c0-80.19-.45-267.91-.45-267.91h93.55S592-16.8,592,65.4v92.9h520.15V425.05s0,83.44,81.34,83.44h90.7V683.58h267.3s80.8,0,80.8,82.2V1128s0,82.6,81.35,82.6h281.55V1317.8H-36.18Z"/></g></g></g><g class="cls-3"><g class="cls-32"><rect class="cls-10" x="337.31" y="951.57" width="162.69" height="164.4"/><g class="cls-33"><path class="cls-5" d="M-36.18,1033.78,418.66,1032V940.89s0-82.21,81.79-82.21h267l-2.05-350.77H245.27V333.39H338s80.64,0,80.64-82.2c0-80.18-.45-267.91-.45-267.91h93.55S592-16.8,592,65.41V158.3h520.15V425.05s0,83.44,81.34,83.44h90.7v175.1h267.3s80.8,0,80.8,82.2V1128s0,82.59,81.35,82.59h281.55V1317.8H-36.18Z"/></g></g></g><g class="cls-3"><g class="cls-34"><rect class="cls-5" x="1030.84" y="426.29" width="162.69" height="164.4"/><g class="cls-35"><path class="cls-7" d="M-36.18,1033.78,418.66,1032V940.89s0-82.21,81.79-82.21h267l-2.05-350.77H245.27V333.39H338s80.64,0,80.64-82.2c0-80.18-.45-267.91-.45-267.91h93.55S592-16.8,592,65.41V158.3h520.15V425.05s0,83.44,81.34,83.44h90.7v175.1h267.3s80.8,0,80.8,82.2V1128s0,82.59,81.35,82.59h281.55V1317.8H-36.18Z"/></g></g></g><g class="cls-3"><g class="cls-36"><rect class="cls-7" x="1030.84" y="251.19" width="162.69" height="164.4"/><g class="cls-37"><path class="cls-10" d="M-36.18,1033.77,418.66,1032V940.88s0-82.2,81.79-82.2h267l-2.05-350.77H245.27V333.39H338s80.64,0,80.64-82.2c0-80.19-.45-267.91-.45-267.91h93.55S592-16.8,592,65.4v92.9h520.15V425.05s0,83.44,81.34,83.44h90.7V683.58h267.3s80.8,0,80.8,82.2V1128s0,82.6,81.35,82.6h281.55V1317.8H-36.18Z"/></g></g></g><g class="cls-3"><g class="cls-38"><rect class="cls-7" x="1030.84" y="76.09" width="162.69" height="164.4"/><g class="cls-39"><path class="cls-5" d="M-36.18,1033.78,418.66,1032V940.89s0-82.21,81.79-82.21h267l-2.05-350.77H245.27V333.39H338s80.64,0,80.64-82.2c0-80.18-.45-267.91-.45-267.91h93.55S592-16.8,592,65.41V158.3h520.15V425.05s0,83.44,81.34,83.44h90.7v175.1h267.3s80.8,0,80.8,82.2V1128s0,82.59,81.35,82.59h281.55V1317.8H-36.18Z"/></g></g></g><g class="cls-3"><g class="cls-40"><path class="cls-10" d="M1805.72,951.57c44.92,0,81.34,36.81,81.34,82.2s-36.42,82.21-81.34,82.21-81.35-36.81-81.35-82.21,36.42-82.2,81.35-82.2"/></g></g><g class="cls-3"><g class="cls-41"><rect class="cls-7" x="1724.37" y="601.38" width="244.13" height="164.4"/></g></g><g class="cls-3"><g class="cls-42"><path class="cls-7" d="M245.27,776.48c44.93,0,81.35,36.8,81.35,82.2s-36.42,82.2-81.35,82.2-81.34-36.8-81.34-82.2,36.42-82.2,81.34-82.2"/></g></g><g class="cls-3"><g class="cls-43"><rect class="cls-5" x="163.93" y="426.29" width="162.69" height="164.4"/><g class="cls-44"><path class="cls-7" d="M-36.18,1033.78,418.66,1032V940.89s0-82.21,81.79-82.21h267l-2.05-350.77H245.27V333.39H338s80.64,0,80.64-82.2c0-80.18-.45-267.91-.45-267.91h93.55S592-16.8,592,65.41V158.3h520.15V425.05s0,83.44,81.34,83.44h90.7v175.1h267.3s80.8,0,80.8,82.2V1128s0,82.59,81.35,82.59h281.55V1317.8H-36.18Z"/></g></g></g><g class="cls-3"><g class="cls-45"><rect class="cls-7" x="163.93" y="251.19" width="162.69" height="164.4"/><g class="cls-46"><path class="cls-10" d="M-36.18,1033.77,418.66,1032V940.88s0-82.2,81.79-82.2h267l-2.05-350.77H245.27V333.39H338s80.64,0,80.64-82.2c0-80.19-.45-267.91-.45-267.91h93.55S592-16.8,592,65.4v92.9h520.15V425.05s0,83.44,81.34,83.44h90.7V683.58h267.3s80.8,0,80.8,82.2V1128s0,82.6,81.35,82.6h281.55V1317.8H-36.18Z"/></g></g></g><g class="cls-3"><g class="cls-47"><path class="cls-7" d="M245.27,76.1c44.93,0,81.35,36.8,81.35,82.2s-36.42,82.2-81.35,82.2-81.34-36.8-81.34-82.2,36.42-82.2,81.34-82.2"/></g></g><g class="cls-3"><g class="cls-48"><path class="cls-10" d="M938.8,776.48c44.93,0,81.35,36.8,81.35,82.2s-36.42,82.2-81.35,82.2-81.34-36.8-81.34-82.2,36.42-82.2,81.34-82.2"/></g></g><g class="cls-3"><g class="cls-49"><path class="cls-7" d="M938.8,426.29c44.93,0,81.35,36.8,81.35,82.2s-36.42,82.2-81.35,82.2-81.34-36.8-81.34-82.2,36.42-82.2,81.34-82.2"/></g></g><g class="cls-3"><g class="cls-50"><polygon class="cls-7" points="1020.15 76.1 1020.15 240.5 968.83 240.5 857.46 240.5 684.07 240.5 684.07 76.1 857.46 76.1 968.83 76.1 1020.15 76.1"/><g class="cls-51"><path class="cls-10" d="M-36.18,1033.78,418.66,1032V940.89s0-82.21,81.79-82.21h267l-2.05-350.77H245.27V333.39H338s80.64,0,80.64-82.2c0-80.18-.45-267.91-.45-267.91h93.55S592-16.8,592,65.41V158.3h520.15V425.05s0,83.44,81.34,83.44h90.7v175.1h267.3s80.8,0,80.8,82.2V1128s0,82.59,81.35,82.59h281.55V1317.8H-36.18Z"/></g></g></g><g class="cls-3"><g class="cls-52"><path class="cls-7" d="M938.8-99c44.93,0,81.35,36.8,81.35,82.2S983.73,65.4,938.8,65.4s-81.34-36.8-81.34-82.2S893.88-99,938.8-99"/></g></g><g class="cls-3"><g class="cls-53"><g class="cls-54"><path class="cls-10" d="M-36.18,1033.78,418.66,1032V940.89s0-82.21,81.79-82.21h267l-2.05-350.77H245.27V333.39H338s80.64,0,80.64-82.2c0-80.18-.45-267.91-.45-267.91h93.55S592-16.8,592,65.41V158.3h520.15V425.05s0,83.44,81.34,83.44h90.7v175.1h267.3s80.8,0,80.8,82.2V1128s0,82.59,81.35,82.59h281.55V1317.8H-36.18Z"/></g></g></g><g class="cls-3"><g class="cls-55"><rect class="cls-10" x="1550.99" y="951.57" width="162.69" height="164.4"/><g class="cls-56"><path class="cls-5" d="M-36.18,1033.78,418.66,1032V940.89s0-82.21,81.79-82.21h267l-2.05-350.77H245.27V333.39H338s80.64,0,80.64-82.2c0-80.18-.45-267.91-.45-267.91h93.55S592-16.8,592,65.41V158.3h520.15V425.05s0,83.44,81.34,83.44h90.7v175.1h267.3s80.8,0,80.8,82.2V1128s0,82.59,81.35,82.59h281.55V1317.8H-36.18Z"/></g></g></g><g class="cls-3"><g class="cls-57"><rect class="cls-5" x="1550.99" y="601.38" width="162.69" height="164.4"/><g class="cls-58"><path class="cls-10" d="M-36.18,1033.78,418.66,1032V940.89s0-82.21,81.79-82.21h267l-2.05-350.77H245.27V333.39H338s80.64,0,80.64-82.2c0-80.18-.45-267.91-.45-267.91h93.55S592-16.8,592,65.41V158.3h520.15V425.05s0,83.44,81.34,83.44h90.7v175.1h267.3s80.8,0,80.8,82.2V1128s0,82.59,81.35,82.59h281.55V1317.8H-36.18Z"/></g></g></g><g class="cls-3"><g class="cls-59"><path class="cls-7" d="M1632.33,251.19c44.93,0,81.35,36.8,81.35,82.2s-36.42,82.21-81.35,82.21S1551,378.79,1551,333.39s36.42-82.2,81.34-82.2"/></g></g><g class="cls-3"><g class="cls-60"><rect class="cls-5" x="1550.99" y="76.09" width="162.69" height="164.4"/></g></g><g class="cls-3"><g class="cls-61"><rect class="cls-5" x="1724.37" y="76.09" width="244.13" height="164.4"/></g></g><g class="cls-3"><g class="cls-62"><rect class="cls-7" x="510.69" y="776.48" width="162.69" height="164.4"/><g class="cls-63"><path class="cls-10" d="M-36.18,1033.77,418.66,1032V940.88s0-82.2,81.79-82.2h267l-2.05-350.77H245.27V333.39H338s80.64,0,80.64-82.2c0-80.19-.45-267.91-.45-267.91h93.55S592-16.8,592,65.4v92.9h520.15V425.05s0,83.44,81.34,83.44h90.7V683.58h267.3s80.8,0,80.8,82.2V1128s0,82.6,81.35,82.6h281.55V1317.8H-36.18Z"/></g></g></g><g class="cls-3"><g class="cls-64"><rect class="cls-7" x="510.69" y="426.29" width="162.69" height="164.4"/></g></g><g class="cls-3"><g class="cls-65"><path class="cls-10" d="M592,251.19c44.92,0,81.34,36.8,81.34,82.2S637,415.6,592,415.6s-81.35-36.81-81.35-82.21,36.42-82.2,81.35-82.2"/></g></g><g class="cls-3"><g class="cls-66"><rect class="cls-7" x="510.69" y="-125.57" width="162.69" height="190.97"/><g class="cls-67"><path class="cls-10" d="M-36.18,1033.77,418.66,1032V940.88s0-82.2,81.79-82.2h267l-2.05-350.77H245.27V333.39H338s80.64,0,80.64-82.2c0-80.19-.45-267.91-.45-267.91h93.55S592-16.8,592,65.4v92.9h520.15V425.05s0,83.44,81.34,83.44h90.7V683.58h267.3s80.8,0,80.8,82.2V1128s0,82.6,81.35,82.6h281.55V1317.8H-36.18Z"/></g></g></g><g class="cls-3"><g class="cls-68"><rect class="cls-7" x="1204.22" y="776.48" width="162.69" height="164.4"/></g></g><g class="cls-3"><g class="cls-69"><path class="cls-5" d="M1285.57,76.1c44.92,0,81.34,36.8,81.34,82.2s-36.42,82.2-81.34,82.2-81.35-36.8-81.35-82.2,36.42-82.2,81.35-82.2"/></g></g><g class="cls-3"><g class="cls-70"><path class="cls-71" d="M1968.5,1317.81H-36.19v-284L418.66,1032V940.88s0-82.2,81.79-82.2h267l-2.05-350.77H245.27V333.4H338s80.64,0,80.64-82.21c0-80.19-.45-267.91-.45-267.91h93.55S592-16.8,592,65.41V158.3h520.15V425.05s0,83.44,81.34,83.44h90.7v175.1h267.29s80.81,0,80.81,82.2V1128s0,82.59,81.35,82.59H1968.5"/></g></g></g></g></g></svg>