<svg xmlns="http://www.w3.org/2000/svg" xmlns:xlink="http://www.w3.org/1999/xlink" viewBox="0 0 44 44"><defs><style>.cls-1{fill:none;}.cls-2{fill:#b43e97;}.cls-3{clip-path:url(#clip-path);}.cls-4{fill:#fff;}</style><clipPath id="clip-path"><rect class="cls-1" x="2.09" y="2.69" width="39.69" height="39.69"/></clipPath></defs><g id="Layer_1" data-name="Layer 1"><rect class="cls-2" x="2.09" y="2.69" width="39.69" height="39.69"/><g class="cls-3"><path class="cls-4" d="M14.14,21.56a3.23,3.23,0,0,1,.55-.12.51.51,0,0,1,.35.07c.13.1,0,.23,0,.34a.08.08,0,0,0,0,0c.21.11.43.2.62.32a3.29,3.29,0,0,0,2.25.6,6,6,0,0,0,1.81-.48,6.5,6.5,0,0,1,1.2-.4,3.64,3.64,0,0,1,2.47.29,5.85,5.85,0,0,0,2.93.65,2.25,2.25,0,0,0,.92-.21,2.59,2.59,0,0,1,1.16-.37.62.62,0,0,0,0-.11c0-.42.14-.5.51-.31a5.92,5.92,0,0,1,.55.34c.07-.13.14-.25.19-.37a9.19,9.19,0,0,0,.84-3.37,9.16,9.16,0,0,0-2.83-7.4,7.94,7.94,0,0,0-7.23-2.24,8.17,8.17,0,0,0-5.59,3.86,9.47,9.47,0,0,0-1.33,6.63,8.23,8.23,0,0,0,.65,2.23m4.62,3.88-1,.11a5.86,5.86,0,0,1-2.24-.24,4.55,4.55,0,0,1-1.64-1,1.35,1.35,0,0,1-.42-1.4c0-.08.05-.17.07-.24s0-.06,0-.06-.31,0-.31-.16a.49.49,0,0,1,.17-.36,5.75,5.75,0,0,1,.59-.46c0-.13-.1-.25-.14-.38a9.49,9.49,0,0,1,1.1-9.18,8.49,8.49,0,0,1,13.44-.76,9.82,9.82,0,0,1,1.51,10.73.63.63,0,0,0,0,.71c.18.28.09.39-.31.44a1.56,1.56,0,0,1-.91,1.86,5.53,5.53,0,0,1-2.61.8,13.73,13.73,0,0,1-1.57-.05l-.29,0c0,.1,0,.18,0,.25A6.51,6.51,0,0,1,24,30.13c-.19.6-.4,1.19-.6,1.79q-.11.31-.18.63a3.31,3.31,0,0,0,.08,1.92,1.63,1.63,0,1,1-3.08,1.06,8.41,8.41,0,0,1-.39-1.63,9.07,9.07,0,0,1,.22-3.36c0-.07,0-.14.08-.31a4.87,4.87,0,0,0-1.25,1.05.91.91,0,0,0,0,1,1.6,1.6,0,0,1-1.46,2.37,1.48,1.48,0,0,1-1.33-.78,5.7,5.7,0,0,1-.64-1.6A2.89,2.89,0,0,1,15.89,30a6.93,6.93,0,0,1,2.49-2.35.56.56,0,0,0,.33-.6c0-.52,0-1,.05-1.62"/><path class="cls-4" d="M26.08,17.4a4.2,4.2,0,1,1-4.22-4.18,4.21,4.21,0,0,1,4.22,4.18"/></g></g></svg>