<svg xmlns="http://www.w3.org/2000/svg" xmlns:xlink="http://www.w3.org/1999/xlink" viewBox="0 0 44 44"><defs><style>.cls-1{fill:none;}.cls-2{clip-path:url(#clip-path);}.cls-3{fill:#b43e97;}.cls-4{fill:#fff;}</style><clipPath id="clip-path"><rect class="cls-1" x="2.16" y="2.69" width="39.69" height="39.69"/></clipPath></defs><g id="Layer_1" data-name="Layer 1"><g class="cls-2"><path class="cls-3" d="M22,42.38A19.85,19.85,0,1,0,2.16,22.53,19.85,19.85,0,0,0,22,42.38"/><path class="cls-4" d="M26.93,18.52c0,.16,0,.29,0,.41.22,2.9.45,5.8.67,8.69,0,.68.11,1.35.16,2a2.81,2.81,0,0,1-.31,1.58c0,.05-.05.09-.07.14a4.08,4.08,0,0,1-3.29,2.45,4.76,4.76,0,0,1-2.59-.14,2.74,2.74,0,0,1-1.39-4.47,5.26,5.26,0,0,1,3.46-2,4.85,4.85,0,0,1,2.39.14l.21.05a2,2,0,0,0,0-.2l-1-12.42c-.07-.84-.14-1.67-.2-2.5a3.29,3.29,0,0,1,0-.7.45.45,0,0,1,.31-.41.4.4,0,0,1,.44.18,1.72,1.72,0,0,1,.31.45,2.91,2.91,0,0,0,.76,1.07c.34.32.71.62,1.06.93.82.72,1.66,1.42,2.44,2.19a10.32,10.32,0,0,1,3,5.43A7.35,7.35,0,0,1,33,25.7a3.71,3.71,0,0,1-.24.49q-.17.27-.39.06a1,1,0,0,1-.25-.38,3.2,3.2,0,0,1-.09-.54,8.4,8.4,0,0,0-4.83-6.7l-.28-.11"/><path class="cls-4" d="M23.81,11.47c-.13.15-.21.27-.3.37l-5.08,5.62-4.21,4.62a.75.75,0,0,1-1.28,0l-.08,0a1.67,1.67,0,0,0-.12.23c-.33.88-.67,1.75-1,2.63a1.39,1.39,0,0,0,1.15,1.7.77.77,0,0,0,.3-.06L16,25.12a.36.36,0,0,0,.08-.09l-.17-.11a.63.63,0,0,1-.14-1.07l4.94-5.38q1.88-2,3.76-4.07l.1-.06c0,.09,0,.17.05.25,0,.45,0,.91,0,1.36a.87.87,0,0,1-.26.7l-5.9,6.46c-.47.52-.94,1.05-1.43,1.55a2.86,2.86,0,0,1-.68.52c-1.66.87-3.32,1.72-5,2.58a1.62,1.62,0,0,1-.48.17c-.34.06-.49-.14-.36-.45.71-1.84,1.43-3.67,2.12-5.5a3.44,3.44,0,0,1,.72-1.15l7.35-8.1c.4-.43.81-.85,1.2-1.29a.78.78,0,0,1,.54-.27,3.46,3.46,0,0,1,1.37.3"/><path class="cls-4" d="M24.18,11.69a.46.46,0,0,1,.35.48c0,.37,0,.75,0,1.13a.64.64,0,0,1-.2.52c-2.77,2.94-5.52,5.89-8.28,8.84-.24.26-.46.53-.69.8a.74.74,0,0,1-.83.28.68.68,0,0,1-.44-.88,1.2,1.2,0,0,1,.22-.36l9.24-10.24a7.94,7.94,0,0,1,.59-.57"/></g></g></svg>