<svg xmlns="http://www.w3.org/2000/svg" xmlns:xlink="http://www.w3.org/1999/xlink" viewBox="0 0 44 44"><defs><style>.cls-1{fill:none;}.cls-2{clip-path:url(#clip-path);}.cls-3{fill:#b43e97;}.cls-4{fill:#fff;}</style><clipPath id="clip-path"><rect class="cls-1" x="2.09" y="2.69" width="39.69" height="39.69"/></clipPath></defs><g id="Layer_1" data-name="Layer 1"><g class="cls-2"><path class="cls-3" d="M21.93,42.38A19.85,19.85,0,1,0,2.09,22.53,19.85,19.85,0,0,0,21.93,42.38"/><path class="cls-4" d="M28.52,28.46a2.68,2.68,0,0,0-.07.27c-.19,1.18-.37,2.36-.55,3.53a1.71,1.71,0,0,1-1.37,1.57,1.61,1.61,0,0,1-1.92-1.5,6.35,6.35,0,0,1,.11-1.06c.09-.62.21-1.24.32-1.89l-.39-.17c-.51-.2-.54-.25-.39-.76.4-1.36.78-2.73,1.22-4.09a5.37,5.37,0,0,0,.25-2.23l-.31.14c-.66.39-1.32.78-2,1.16a8.36,8.36,0,0,1-.79.4,1.35,1.35,0,0,1-1.08.05,6.85,6.85,0,0,1-.87-.4c-.62-.35-1.22-.71-1.83-1.07l-.37-.19a3.49,3.49,0,0,0,.19,1.23c.68,1.35,1.35,2.71,2,4.06.19.38.19.48-.12.77a5.92,5.92,0,0,1-.64.48q.12.68.24,1.38c.11.62.22,1.23.31,1.85a1.65,1.65,0,0,1-1.24,1.9,1.61,1.61,0,0,1-1.94-1.15c-.15-.58-.21-1.18-.31-1.77-.07-.42-.13-.84-.19-1.27H16c0,.2-.07.41-.1.62-.11.69-.2,1.37-.31,2a1.66,1.66,0,0,1-1.16,1.41A1.64,1.64,0,0,1,12.34,32c.06-.5.16-1,.25-1.48s.17-1,.26-1.54l-.38-.17a7.22,7.22,0,0,1-.77-.43c-.29-.22-.29-.29-.14-.62l1.56-3.38c0-.1.09-.19.13-.28a2.36,2.36,0,0,0,.27-1.77,1.69,1.69,0,0,0-.27.12l-2.13,1.24a1.58,1.58,0,0,1-.82.28,1.33,1.33,0,0,1-.89-2.37,1.63,1.63,0,0,1,.35-.23L14.11,19a4.55,4.55,0,0,1,2.1-.57,3.05,3.05,0,0,1,1.5.39l4,2.18a.5.5,0,0,0,.56,0c1.41-.78,2.82-1.56,4.25-2.32a3.62,3.62,0,0,1,3.6,0l4.08,2.22a3.07,3.07,0,0,1,.43.26A1.35,1.35,0,0,1,35,22.92a1.32,1.32,0,0,1-1.63.57,2.73,2.73,0,0,1-.45-.23l-1.76-1-.36-.2a3.67,3.67,0,0,0,.11,1c.46,1.54.91,3.09,1.37,4.64.09.3.19.61.28.92s.13.45-.31.71c0,.1,0,.21,0,.32.13.76.27,1.51.39,2.27a1.64,1.64,0,0,1-1.25,1.89,1.61,1.61,0,0,1-1.94-1.15c-.15-.58-.21-1.18-.31-1.77s-.24-1.42-.37-2.12a2.19,2.19,0,0,0-.12-.33l-.13,0"/><path class="cls-4" d="M11.47,13.44a4.67,4.67,0,0,0-1.17,1.23,3.53,3.53,0,0,0-.54,1.51c-.26,0-.34-.12-.43-.23a3.1,3.1,0,0,1-.61-1.68,3.78,3.78,0,0,1,.59-2.42,2.14,2.14,0,0,1,3-.72l.16.09a4.29,4.29,0,0,1,6.3-.1l.28-.13a2.13,2.13,0,0,1,2.53.52,3.35,3.35,0,0,1,.8,1.71A3.56,3.56,0,0,1,22,15.81a.64.64,0,0,1-.47.4c-.1-.32-.17-.64-.29-.94a5.67,5.67,0,0,0-.5-.86,9.45,9.45,0,0,0-.67-.75c-.15.13-.09.27-.09.38a4.24,4.24,0,0,1-8.47.09v-.69"/><path class="cls-4" d="M27.77,18A4.21,4.21,0,1,1,32,13.8,4.21,4.21,0,0,1,27.77,18"/></g></g></svg>