<svg xmlns="http://www.w3.org/2000/svg" xmlns:xlink="http://www.w3.org/1999/xlink" viewBox="0 0 50 50"><defs><style>.cls-1{fill:none;}.cls-2{clip-path:url(#clip-path);}.cls-3{clip-path:url(#clip-path-2);}.cls-4{fill:#f99d1c;}.cls-5{fill:#231f20;}.cls-6{fill:#b43e97;}.cls-7{opacity:0.4;}.cls-8{clip-path:url(#clip-path-3);}.cls-9{fill:#fff;}.cls-10{clip-path:url(#clip-path-4);}</style><clipPath id="clip-path"><rect class="cls-1" x="1.86" y="1.86" width="46.28" height="46.28"/></clipPath><clipPath id="clip-path-2"><rect class="cls-1" x="1.86" y="1.86" width="46.29" height="46.29"/></clipPath><clipPath id="clip-path-3"><rect class="cls-1" x="0.7" y="19.02" width="28.72" height="12.29"/></clipPath><clipPath id="clip-path-4"><rect class="cls-1" x="20.59" y="19.02" width="28.72" height="12.29"/></clipPath></defs><g id="Layer_1" data-name="Layer 1"><g class="cls-2"><g class="cls-3"><path class="cls-4" d="M25,48.14A23.14,23.14,0,1,0,1.86,25,23.14,23.14,0,0,0,25,48.14"/><path class="cls-5" d="M25,33.53a4.63,4.63,0,0,1-4.62-4.62.7.7,0,0,1,1.39,0,3.24,3.24,0,1,0,6.47,0,.69.69,0,1,1,1.38,0A4.62,4.62,0,0,1,25,33.53"/><path class="cls-6" d="M15.06,19a2.64,2.64,0,0,0-5.15.82c0,3.39,5.15,6.57,5.15,6.57s5.14-3.18,5.14-6.57A2.63,2.63,0,0,0,15.06,19"/><path class="cls-5" d="M12.55,17.85a2,2,0,0,0-2,1.95c0,2.26,2.94,4.72,4.46,5.75,1.51-1,4.45-3.49,4.45-5.75a1.95,1.95,0,0,0-3.8-.61.67.67,0,0,1-.65.48.69.69,0,0,1-.66-.48,2,2,0,0,0-1.85-1.34m2.51,9.22a.7.7,0,0,1-.37-.11c-.22-.14-5.47-3.43-5.47-7.16a3.33,3.33,0,0,1,5.84-2.19,3.32,3.32,0,0,1,5.83,2.19c0,3.73-5.25,7-5.47,7.16a.69.69,0,0,1-.36.11"/><path class="cls-6" d="M34.94,19a2.63,2.63,0,0,0-5.14.82c0,3.39,5.14,6.57,5.14,6.57s5.15-3.18,5.15-6.57A2.64,2.64,0,0,0,34.94,19"/><path class="cls-5" d="M32.44,17.85a2,2,0,0,0-1.95,1.95c0,2.26,2.94,4.72,4.45,5.75,1.52-1,4.46-3.49,4.46-5.75a1.95,1.95,0,0,0-3.8-.61.69.69,0,0,1-.66.48.67.67,0,0,1-.65-.48,2,2,0,0,0-1.85-1.34m2.5,9.22a.69.69,0,0,1-.36-.11c-.22-.14-5.47-3.43-5.47-7.16a3.32,3.32,0,0,1,5.83-2.19,3.33,3.33,0,0,1,5.84,2.19c0,3.73-5.25,7-5.47,7.16a.7.7,0,0,1-.37.11"/><g class="cls-7"><g class="cls-8"><path class="cls-9" d="M18.16,28.91c0,.63-1.39,1.14-3.1,1.14S12,29.54,12,28.91s1.39-1.14,3.11-1.14,3.1.51,3.1,1.14"/></g></g><g class="cls-7"><g class="cls-10"><path class="cls-9" d="M38.06,28.91c0,.63-1.39,1.14-3.11,1.14s-3.11-.51-3.11-1.14,1.39-1.14,3.11-1.14,3.11.51,3.11,1.14"/></g></g></g></g></g></svg>