<svg xmlns="http://www.w3.org/2000/svg" xmlns:xlink="http://www.w3.org/1999/xlink" viewBox="0 0 50 50"><defs><style>.cls-1{fill:none;}.cls-2{clip-path:url(#clip-path);}.cls-3{clip-path:url(#clip-path-2);}.cls-4{fill:#b43e97;}.cls-5{fill:#231f20;}.cls-6{fill:#962f34;}.cls-7{opacity:0.4;}.cls-8{clip-path:url(#clip-path-3);}.cls-9{fill:#fff;}.cls-10{clip-path:url(#clip-path-4);}</style><clipPath id="clip-path"><rect class="cls-1" x="1.86" y="1.86" width="46.28" height="46.28"/></clipPath><clipPath id="clip-path-2"><rect class="cls-1" x="1.86" y="1.86" width="46.29" height="46.29"/></clipPath><clipPath id="clip-path-3"><rect class="cls-1" x="1.03" y="20.66" width="28.56" height="12.23"/></clipPath><clipPath id="clip-path-4"><rect class="cls-1" x="20.41" y="20.66" width="28.56" height="12.23"/></clipPath></defs><g id="Layer_1" data-name="Layer 1"><g class="cls-2"><g class="cls-3"><path class="cls-4" d="M25,48.14A23.14,23.14,0,1,0,1.86,25,23.14,23.14,0,0,0,25,48.14"/><path class="cls-5" d="M19.14,27.12a.67.67,0,0,1-.68-.68,3.15,3.15,0,0,0-6.3,0,.68.68,0,0,1-.68.68.67.67,0,0,1-.67-.68,4.5,4.5,0,1,1,9,0,.67.67,0,0,1-.67.68"/><path class="cls-5" d="M38.51,27.12a.67.67,0,0,1-.67-.68,3.16,3.16,0,0,0-6.31,0,.68.68,0,1,1-1.35,0,4.5,4.5,0,0,1,9,0,.67.67,0,0,1-.67.68"/><path class="cls-5" d="M21.17,30.53a3.83,3.83,0,0,0,7.66,0Z"/><path class="cls-6" d="M27.53,33.4a3.81,3.81,0,0,0-5.06,0,3.84,3.84,0,0,0,5.06,0"/><g class="cls-7"><g class="cls-8"><path class="cls-9" d="M18.34,30.53c0,.61-1.36,1.11-3,1.11s-3-.5-3-1.11,1.36-1.12,3-1.12,3,.5,3,1.12"/></g></g><g class="cls-7"><g class="cls-10"><path class="cls-9" d="M37.72,30.53c0,.61-1.36,1.11-3,1.11s-3-.5-3-1.11,1.36-1.12,3-1.12,3,.5,3,1.12"/></g></g><path class="cls-5" d="M10.84,21.26A.68.68,0,0,1,10.55,20l8.94-4.26a.68.68,0,1,1,.58,1.22l-8.94,4.26a.62.62,0,0,1-.29.07"/><path class="cls-5" d="M39.16,21.26a.62.62,0,0,1-.29-.07l-8.94-4.26a.68.68,0,0,1,.58-1.22L39.45,20a.68.68,0,0,1-.29,1.29"/></g></g></g></svg>