<svg xmlns="http://www.w3.org/2000/svg" xmlns:xlink="http://www.w3.org/1999/xlink" viewBox="0 0 50 50"><defs><style>.cls-1{fill:none;}.cls-2{clip-path:url(#clip-path);}.cls-3{clip-path:url(#clip-path-2);}.cls-4{fill:#a6ce39;}.cls-5{fill:#231f20;}.cls-6{fill:#fff;}.cls-7{opacity:0.4;}.cls-8{clip-path:url(#clip-path-3);}.cls-9{clip-path:url(#clip-path-4);}</style><clipPath id="clip-path"><rect class="cls-1" x="1.86" y="1.86" width="46.28" height="46.28"/></clipPath><clipPath id="clip-path-2"><rect class="cls-1" x="1.86" y="1.86" width="46.29" height="46.29"/></clipPath><clipPath id="clip-path-3"><rect class="cls-1" x="0.7" y="17.91" width="28.72" height="12.29"/></clipPath><clipPath id="clip-path-4"><rect class="cls-1" x="20.59" y="17.91" width="28.72" height="12.29"/></clipPath></defs><g id="Layer_1" data-name="Layer 1"><g class="cls-2"><g class="cls-3"><path class="cls-4" d="M25,48.14A23.14,23.14,0,1,0,1.86,25,23.14,23.14,0,0,0,25,48.14"/><path class="cls-5" d="M19,21.68a3.93,3.93,0,1,1-3.93-3.93A3.93,3.93,0,0,1,19,21.68"/><path class="cls-6" d="M15.05,20.37a1.32,1.32,0,1,1-1.32-1.32,1.32,1.32,0,0,1,1.32,1.32"/><path class="cls-6" d="M17.09,23.33a.4.4,0,0,1-.39.39.39.39,0,0,1-.39-.39.38.38,0,0,1,.39-.39.39.39,0,0,1,.39.39"/><path class="cls-5" d="M38.87,21.68A3.93,3.93,0,1,1,35,17.75a3.92,3.92,0,0,1,3.92,3.93"/><path class="cls-6" d="M34.94,20.37a1.32,1.32,0,1,1-1.32-1.32,1.32,1.32,0,0,1,1.32,1.32"/><path class="cls-6" d="M37,23.33a.39.39,0,1,1-.77,0,.39.39,0,1,1,.77,0"/><g class="cls-7"><g class="cls-8"><path class="cls-6" d="M18.16,27.8c0,.63-1.39,1.15-3.11,1.15S12,28.43,12,27.8s1.39-1.14,3.1-1.14,3.11.51,3.11,1.14"/></g></g><g class="cls-7"><g class="cls-9"><path class="cls-6" d="M38.05,27.8c0,.63-1.39,1.15-3.1,1.15s-3.11-.52-3.11-1.15,1.39-1.14,3.11-1.14,3.1.51,3.1,1.14"/></g></g><path class="cls-5" d="M25.13,32.25a.7.7,0,0,1-.51-.23l-3.57-4a.69.69,0,1,1,1-.93l3.05,3.4,3.05-3.4a.7.7,0,0,1,1-.05.69.69,0,0,1,.05,1l-3.56,4a.74.74,0,0,1-.52.23"/></g></g></g></svg>